<?xml version="1.0" encoding="UTF-8" standalone="no"?>
<!DOCTYPE svg PUBLIC "-//W3C//DTD SVG 1.1//EN"
 "http://www.w3.org/Graphics/SVG/1.1/DTD/svg11.dtd">
<!-- Generated by graphviz version 2.40.1 (20161225.0304)
 -->
<!-- Title: %3 Pages: 1 -->
<svg width="1398pt" height="692pt"
 viewBox="0.00 0.00 1398.00 692.00" xmlns="http://www.w3.org/2000/svg" xmlns:xlink="http://www.w3.org/1999/xlink">
<g id="graph0" class="graph" transform="scale(1 1) rotate(0) translate(4 688)">
<title>%3</title>
<polygon fill="#ffffff" stroke="transparent" points="-4,4 -4,-688 1394,-688 1394,4 -4,4"/>
<!-- 0 -->
<g id="node1" class="node">
<title>0</title>
<ellipse fill="none" stroke="#000000" cx="258" cy="-666" rx="27" ry="18"/>
<text text-anchor="middle" x="258" y="-662.3" font-family="Times,serif" font-size="14.00" fill="#000000">0</text>
</g>
<!-- 2 -->
<g id="node2" class="node">
<title>2</title>
<ellipse fill="none" stroke="#000000" cx="378" cy="-594" rx="27" ry="18"/>
<text text-anchor="middle" x="378" y="-590.3" font-family="Times,serif" font-size="14.00" fill="#000000">2</text>
</g>
<!-- 0&#45;&gt;2 -->
<g id="edge1" class="edge">
<title>0&#45;&gt;2</title>
<path fill="none" stroke="#000000" d="M278.0853,-653.9488C297.5542,-642.2675 327.2846,-624.4293 349.2564,-611.2461"/>
<polygon fill="#000000" stroke="#000000" points="351.075,-614.2367 357.8492,-606.0905 347.4735,-608.2343 351.075,-614.2367"/>
</g>
<!-- 6 -->
<g id="node3" class="node">
<title>6</title>
<ellipse fill="none" stroke="#000000" cx="300" cy="-378" rx="27" ry="18"/>
<text text-anchor="middle" x="300" y="-374.3" font-family="Times,serif" font-size="14.00" fill="#000000">6</text>
</g>
<!-- 0&#45;&gt;6 -->
<g id="edge2" class="edge">
<title>0&#45;&gt;6</title>
<path fill="none" stroke="#000000" d="M246.1768,-649.3772C226.7643,-619.9585 191.9137,-556.8408 209,-504 222.3513,-462.7099 254.8402,-423.5723 277.1531,-400.1776"/>
<polygon fill="#000000" stroke="#000000" points="279.8082,-402.4682 284.2876,-392.8668 274.7984,-397.5791 279.8082,-402.4682"/>
</g>
<!-- 9 -->
<g id="node4" class="node">
<title>9</title>
<ellipse fill="none" stroke="#000000" cx="461" cy="-234" rx="27" ry="18"/>
<text text-anchor="middle" x="461" y="-230.3" font-family="Times,serif" font-size="14.00" fill="#000000">9</text>
</g>
<!-- 0&#45;&gt;9 -->
<g id="edge3" class="edge">
<title>0&#45;&gt;9</title>
<path fill="none" stroke="#000000" d="M284.3939,-661.9921C371.1504,-648.0853 642,-598.54 642,-522 642,-522 642,-522 642,-378 642,-304.061 548.3601,-261.988 495.7848,-244.1927"/>
<polygon fill="#000000" stroke="#000000" points="496.7598,-240.8292 486.1673,-241.0525 494.587,-247.4835 496.7598,-240.8292"/>
</g>
<!-- 10 -->
<g id="node5" class="node">
<title>10</title>
<ellipse fill="none" stroke="#000000" cx="247" cy="-162" rx="27" ry="18"/>
<text text-anchor="middle" x="247" y="-158.3" font-family="Times,serif" font-size="14.00" fill="#000000">10</text>
</g>
<!-- 0&#45;&gt;10 -->
<g id="edge4" class="edge">
<title>0&#45;&gt;10</title>
<path fill="none" stroke="#000000" d="M230.8771,-663.5977C164.6366,-656.0963 0,-626.9006 0,-522 0,-522 0,-522 0,-306 0,-258.8889 18.3497,-244.318 56,-216 101.728,-181.6065 168.4905,-169.1114 209.7629,-164.5768"/>
<polygon fill="#000000" stroke="#000000" points="210.327,-168.0381 219.9309,-163.5644 209.6333,-161.0725 210.327,-168.0381"/>
</g>
<!-- 2&#45;&gt;6 -->
<g id="edge12" class="edge">
<title>2&#45;&gt;6</title>
<path fill="none" stroke="#000000" d="M371.6169,-576.3238C358.0137,-538.6534 326.0889,-450.2461 309.854,-405.2881"/>
<polygon fill="#000000" stroke="#000000" points="313.0503,-403.8343 306.3619,-395.6175 306.4664,-406.2118 313.0503,-403.8343"/>
</g>
<!-- 2&#45;&gt;9 -->
<g id="edge15" class="edge">
<title>2&#45;&gt;9</title>
<path fill="none" stroke="#000000" d="M403.3545,-587.4856C454.6705,-572.6064 566,-530.993 566,-450 566,-450 566,-450 566,-378 566,-324.8878 518.7884,-278.2568 487.6805,-253.2962"/>
<polygon fill="#000000" stroke="#000000" points="489.8115,-250.5196 479.7719,-247.1346 485.5093,-256.0415 489.8115,-250.5196"/>
</g>
<!-- 2&#45;&gt;10 -->
<g id="edge16" class="edge">
<title>2&#45;&gt;10</title>
<path fill="none" stroke="#000000" d="M351.8853,-588.8394C272.2701,-572.3671 38,-518.1101 38,-450 38,-450 38,-450 38,-306 38,-222.9009 151.4235,-184.0883 211.157,-169.4099"/>
<polygon fill="#000000" stroke="#000000" points="212.0224,-172.8019 220.9526,-167.1008 210.4163,-165.9886 212.0224,-172.8019"/>
</g>
<!-- 3 -->
<g id="node7" class="node">
<title>3</title>
<ellipse fill="none" stroke="#000000" cx="433" cy="-522" rx="27" ry="18"/>
<text text-anchor="middle" x="433" y="-518.3" font-family="Times,serif" font-size="14.00" fill="#000000">3</text>
</g>
<!-- 2&#45;&gt;3 -->
<g id="edge10" class="edge">
<title>2&#45;&gt;3</title>
<path fill="none" stroke="#000000" d="M390.4804,-577.6621C397.5124,-568.4564 406.4347,-556.7764 414.2883,-546.4953"/>
<polygon fill="#000000" stroke="#000000" points="417.28,-548.3446 420.569,-538.2733 411.7172,-544.0953 417.28,-548.3446"/>
</g>
<!-- 5 -->
<g id="node8" class="node">
<title>5</title>
<ellipse fill="none" stroke="#000000" cx="431" cy="-450" rx="27" ry="18"/>
<text text-anchor="middle" x="431" y="-446.3" font-family="Times,serif" font-size="14.00" fill="#000000">5</text>
</g>
<!-- 2&#45;&gt;5 -->
<g id="edge11" class="edge">
<title>2&#45;&gt;5</title>
<path fill="none" stroke="#000000" d="M379.9185,-575.8612C382.3188,-557.2825 387.3444,-527.8288 397,-504 401.1189,-493.8351 407.1369,-483.4563 412.9691,-474.5493"/>
<polygon fill="#000000" stroke="#000000" points="415.9229,-476.4299 418.6621,-466.1953 410.1384,-472.4878 415.9229,-476.4299"/>
</g>
<!-- 7 -->
<g id="node9" class="node">
<title>7</title>
<ellipse fill="none" stroke="#000000" cx="207" cy="-306" rx="27" ry="18"/>
<text text-anchor="middle" x="207" y="-302.3" font-family="Times,serif" font-size="14.00" fill="#000000">7</text>
</g>
<!-- 2&#45;&gt;7 -->
<g id="edge13" class="edge">
<title>2&#45;&gt;7</title>
<path fill="none" stroke="#000000" d="M351.8546,-589.4635C308.8257,-581.4087 226.1297,-563.2471 209,-540 163.6292,-478.4264 183.9079,-380.8656 197.8161,-333.5469"/>
<polygon fill="#000000" stroke="#000000" points="201.2469,-334.2969 200.8313,-323.7102 194.5543,-332.2454 201.2469,-334.2969"/>
</g>
<!-- 8 -->
<g id="node10" class="node">
<title>8</title>
<ellipse fill="none" stroke="#000000" cx="431" cy="-306" rx="27" ry="18"/>
<text text-anchor="middle" x="431" y="-302.3" font-family="Times,serif" font-size="14.00" fill="#000000">8</text>
</g>
<!-- 2&#45;&gt;8 -->
<g id="edge14" class="edge">
<title>2&#45;&gt;8</title>
<path fill="none" stroke="#000000" d="M403.1604,-586.8222C424.9139,-579.1325 455.0012,-564.5849 469,-540 507.5008,-472.3842 468.4131,-377.0202 445.3362,-331.7665"/>
<polygon fill="#000000" stroke="#000000" points="448.4307,-330.1311 440.6885,-322.8985 442.2306,-333.3805 448.4307,-330.1311"/>
</g>
<!-- 11 -->
<g id="node11" class="node">
<title>11</title>
<ellipse fill="none" stroke="#000000" cx="420" cy="-90" rx="27" ry="18"/>
<text text-anchor="middle" x="420" y="-86.3" font-family="Times,serif" font-size="14.00" fill="#000000">11</text>
</g>
<!-- 2&#45;&gt;11 -->
<g id="edge17" class="edge">
<title>2&#45;&gt;11</title>
<path fill="none" stroke="#000000" d="M404.8878,-591.4377C440.1253,-586.7993 502.1187,-574.0781 542,-540 569.3524,-516.6277 570.298,-502.9098 579,-468 590.6102,-421.4232 589.1339,-407.125 580,-360 560.0887,-257.2706 480.0077,-156.7238 441.2391,-112.8983"/>
<polygon fill="#000000" stroke="#000000" points="443.7865,-110.4965 434.5048,-105.3875 438.5746,-115.1695 443.7865,-110.4965"/>
</g>
<!-- 6&#45;&gt;9 -->
<g id="edge31" class="edge">
<title>6&#45;&gt;9</title>
<path fill="none" stroke="#000000" d="M315.1471,-362.9959C333.6331,-344.8389 366.0157,-313.5267 395,-288 407.9991,-276.5516 422.9021,-264.2884 435.2535,-254.3464"/>
<polygon fill="#000000" stroke="#000000" points="437.7216,-256.8541 443.3421,-247.8729 433.3477,-251.3889 437.7216,-256.8541"/>
</g>
<!-- 6&#45;&gt;10 -->
<g id="edge32" class="edge">
<title>6&#45;&gt;10</title>
<path fill="none" stroke="#000000" d="M295.2548,-360.02C292.5064,-349.5267 289.0064,-336.0267 286,-324 274.2762,-277.1009 261.24,-222.4007 253.6004,-190.0683"/>
<polygon fill="#000000" stroke="#000000" points="256.9289,-188.9336 251.2262,-180.0044 250.1159,-190.5409 256.9289,-188.9336"/>
</g>
<!-- 6&#45;&gt;7 -->
<g id="edge29" class="edge">
<title>6&#45;&gt;7</title>
<path fill="none" stroke="#000000" d="M282.0687,-364.1177C268.1736,-353.3602 248.7219,-338.3009 233.1009,-326.2072"/>
<polygon fill="#000000" stroke="#000000" points="234.9262,-323.1939 224.8763,-319.8397 230.6409,-328.729 234.9262,-323.1939"/>
</g>
<!-- 6&#45;&gt;8 -->
<g id="edge30" class="edge">
<title>6&#45;&gt;8</title>
<path fill="none" stroke="#000000" d="M321.0474,-366.432C342.7242,-354.518 376.6995,-335.8446 401.147,-322.4077"/>
<polygon fill="#000000" stroke="#000000" points="402.9271,-325.4233 410.0048,-317.5393 399.5554,-319.2888 402.9271,-325.4233"/>
</g>
<!-- 6&#45;&gt;11 -->
<g id="edge33" class="edge">
<title>6&#45;&gt;11</title>
<path fill="none" stroke="#000000" d="M307.3259,-360.4178C327.6255,-311.6987 384.6931,-174.7366 408.9103,-116.6153"/>
<polygon fill="#000000" stroke="#000000" points="412.1545,-117.929 412.77,-107.352 405.693,-115.2366 412.1545,-117.929"/>
</g>
<!-- 12 -->
<g id="node13" class="node">
<title>12</title>
<ellipse fill="none" stroke="#000000" cx="152" cy="-90" rx="27" ry="18"/>
<text text-anchor="middle" x="152" y="-86.3" font-family="Times,serif" font-size="14.00" fill="#000000">12</text>
</g>
<!-- 6&#45;&gt;12 -->
<g id="edge34" class="edge">
<title>6&#45;&gt;12</title>
<path fill="none" stroke="#000000" d="M273.2417,-374.9474C243.0241,-369.9528 194.954,-357.0137 171,-324 126.0479,-262.0466 136.8232,-165.0637 145.7553,-117.7851"/>
<polygon fill="#000000" stroke="#000000" points="149.1935,-118.4402 147.7254,-107.9475 142.3298,-117.0656 149.1935,-118.4402"/>
</g>
<!-- 9&#45;&gt;10 -->
<g id="edge39" class="edge">
<title>9&#45;&gt;10</title>
<path fill="none" stroke="#000000" d="M436.8675,-225.8806C398.7373,-213.0518 324.4316,-188.0518 280.9427,-173.42"/>
<polygon fill="#000000" stroke="#000000" points="281.9667,-170.0718 271.3727,-170.2002 279.7345,-176.7063 281.9667,-170.0718"/>
</g>
<!-- 9&#45;&gt;11 -->
<g id="edge40" class="edge">
<title>9&#45;&gt;11</title>
<path fill="none" stroke="#000000" d="M455.8902,-216.0535C448.8546,-191.3431 436.1196,-146.6152 427.865,-117.6234"/>
<polygon fill="#000000" stroke="#000000" points="431.1501,-116.3797 425.0454,-107.7204 424.4176,-118.2966 431.1501,-116.3797"/>
</g>
<!-- 10&#45;&gt;11 -->
<g id="edge41" class="edge">
<title>10&#45;&gt;11</title>
<path fill="none" stroke="#000000" d="M269.9731,-152.439C300.0889,-139.9052 353.1014,-117.8422 387.3713,-103.5796"/>
<polygon fill="#000000" stroke="#000000" points="389.0444,-106.6743 396.9319,-99.6006 386.3547,-100.2117 389.0444,-106.6743"/>
</g>
<!-- 10&#45;&gt;12 -->
<g id="edge42" class="edge">
<title>10&#45;&gt;12</title>
<path fill="none" stroke="#000000" d="M229.1312,-148.4574C214.7594,-137.565 194.3619,-122.1059 178.1524,-109.8207"/>
<polygon fill="#000000" stroke="#000000" points="180.1954,-106.9776 170.1116,-103.7267 175.9673,-112.5564 180.1954,-106.9776"/>
</g>
<!-- 1 -->
<g id="node6" class="node">
<title>1</title>
<ellipse fill="none" stroke="#000000" cx="433" cy="-666" rx="27" ry="18"/>
<text text-anchor="middle" x="433" y="-662.3" font-family="Times,serif" font-size="14.00" fill="#000000">1</text>
</g>
<!-- 1&#45;&gt;2 -->
<g id="edge5" class="edge">
<title>1&#45;&gt;2</title>
<path fill="none" stroke="#000000" d="M420.5196,-649.6621C413.4876,-640.4564 404.5653,-628.7764 396.7117,-618.4953"/>
<polygon fill="#000000" stroke="#000000" points="399.2828,-616.0953 390.431,-610.2733 393.72,-620.3446 399.2828,-616.0953"/>
</g>
<!-- 1&#45;&gt;6 -->
<g id="edge8" class="edge">
<title>1&#45;&gt;6</title>
<path fill="none" stroke="#000000" d="M408.4459,-658.0218C387.4046,-649.8665 358.0311,-635.0874 342,-612 297.9931,-548.623 295.8606,-453.0287 297.9127,-406.0638"/>
<polygon fill="#000000" stroke="#000000" points="301.4111,-406.1851 298.4506,-396.0123 294.4211,-405.8109 301.4111,-406.1851"/>
</g>
<!-- 1&#45;&gt;9 -->
<g id="edge9" class="edge">
<title>1&#45;&gt;9</title>
<path fill="none" stroke="#000000" d="M459.8114,-662.9375C512.7849,-656.3556 628.1516,-639.2145 656,-612 685.6077,-583.0662 680,-563.3978 680,-522 680,-522 680,-522 680,-378 680,-336.6022 685.1325,-317.4121 656,-288 633.9019,-265.6898 547.5632,-248.2042 497.4892,-239.6856"/>
<polygon fill="#000000" stroke="#000000" points="497.8295,-236.1942 487.3906,-238.0055 496.6806,-243.0993 497.8295,-236.1942"/>
</g>
<!-- 1&#45;&gt;3 -->
<g id="edge6" class="edge">
<title>1&#45;&gt;3</title>
<path fill="none" stroke="#000000" d="M433,-647.7623C433,-623.201 433,-579.2474 433,-550.3541"/>
<polygon fill="#000000" stroke="#000000" points="436.5001,-550.0896 433,-540.0896 429.5001,-550.0897 436.5001,-550.0896"/>
</g>
<!-- 1&#45;&gt;5 -->
<g id="edge7" class="edge">
<title>1&#45;&gt;5</title>
<path fill="none" stroke="#000000" d="M442.7311,-648.7121C458.2699,-618.8008 485.3482,-555.6388 469,-504 465.5389,-493.0676 458.9807,-482.4339 452.2742,-473.5347"/>
<polygon fill="#000000" stroke="#000000" points="454.882,-471.192 445.895,-465.5808 449.4212,-475.5716 454.882,-471.192"/>
</g>
<!-- 3&#45;&gt;6 -->
<g id="edge19" class="edge">
<title>3&#45;&gt;6</title>
<path fill="none" stroke="#000000" d="M419.1106,-506.2465C403.1023,-488.1652 375.9209,-457.6941 352,-432 342.3431,-421.6272 331.4932,-410.3087 322.2125,-400.7256"/>
<polygon fill="#000000" stroke="#000000" points="324.6367,-398.1981 315.1586,-393.4634 319.6155,-403.0753 324.6367,-398.1981"/>
</g>
<!-- 3&#45;&gt;9 -->
<g id="edge20" class="edge">
<title>3&#45;&gt;9</title>
<path fill="none" stroke="#000000" d="M445.8402,-505.9932C453.3316,-495.746 462.2218,-481.821 467,-468 493.2302,-392.1289 496.8019,-366.9009 482,-288 480.2937,-278.9044 477.1016,-269.3722 473.712,-260.8918"/>
<polygon fill="#000000" stroke="#000000" points="476.8555,-259.3401 469.7195,-251.509 470.4144,-262.081 476.8555,-259.3401"/>
</g>
<!-- 3&#45;&gt;5 -->
<g id="edge18" class="edge">
<title>3&#45;&gt;5</title>
<path fill="none" stroke="#000000" d="M432.4953,-503.8314C432.2814,-496.131 432.0271,-486.9743 431.7894,-478.4166"/>
<polygon fill="#000000" stroke="#000000" points="435.2879,-478.3122 431.5115,-468.4133 428.2906,-478.5066 435.2879,-478.3122"/>
</g>
<!-- 5&#45;&gt;6 -->
<g id="edge24" class="edge">
<title>5&#45;&gt;6</title>
<path fill="none" stroke="#000000" d="M409.9526,-438.432C388.2758,-426.518 354.3005,-407.8446 329.853,-394.4077"/>
<polygon fill="#000000" stroke="#000000" points="331.4446,-391.2888 320.9952,-389.5393 328.0729,-397.4233 331.4446,-391.2888"/>
</g>
<!-- 5&#45;&gt;9 -->
<g id="edge26" class="edge">
<title>5&#45;&gt;9</title>
<path fill="none" stroke="#000000" d="M437.7226,-432.3936C446.5133,-408.3382 461.4463,-363.6536 467,-324 469.2192,-308.1547 467.8848,-303.9755 467,-288 466.5305,-279.5236 465.6496,-270.3329 464.7045,-261.9779"/>
<polygon fill="#000000" stroke="#000000" points="468.1686,-261.4689 463.4992,-251.9585 461.2187,-262.3049 468.1686,-261.4689"/>
</g>
<!-- 5&#45;&gt;10 -->
<g id="edge27" class="edge">
<title>5&#45;&gt;10</title>
<path fill="none" stroke="#000000" d="M420.3121,-433.2711C389.4429,-384.9542 300.0135,-244.9776 263.1632,-187.2989"/>
<polygon fill="#000000" stroke="#000000" points="266.0508,-185.3177 257.7174,-178.7751 260.1519,-189.0865 266.0508,-185.3177"/>
</g>
<!-- 5&#45;&gt;8 -->
<g id="edge25" class="edge">
<title>5&#45;&gt;8</title>
<path fill="none" stroke="#000000" d="M431,-431.7623C431,-407.201 431,-363.2474 431,-334.3541"/>
<polygon fill="#000000" stroke="#000000" points="434.5001,-334.0896 431,-324.0896 427.5001,-334.0897 434.5001,-334.0896"/>
</g>
<!-- 5&#45;&gt;12 -->
<g id="edge28" class="edge">
<title>5&#45;&gt;12</title>
<path fill="none" stroke="#000000" d="M404.2684,-447.1251C346.3015,-439.31 209.4054,-411.967 149,-324 105.7026,-260.9469 127.7092,-164.0826 142.3867,-117.2361"/>
<polygon fill="#000000" stroke="#000000" points="145.7882,-118.094 145.5597,-107.5017 139.1328,-115.9246 145.7882,-118.094"/>
</g>
<!-- 7&#45;&gt;9 -->
<g id="edge35" class="edge">
<title>7&#45;&gt;9</title>
<path fill="none" stroke="#000000" d="M232.2831,-298.8331C277.9268,-285.8948 374.1576,-258.6167 426.0582,-243.9048"/>
<polygon fill="#000000" stroke="#000000" points="427.1528,-247.2325 435.8192,-241.1379 425.2437,-240.4978 427.1528,-247.2325"/>
</g>
<!-- 7&#45;&gt;10 -->
<g id="edge36" class="edge">
<title>7&#45;&gt;10</title>
<path fill="none" stroke="#000000" d="M211.9852,-288.0535C218.8491,-263.3431 231.2736,-218.6152 239.3268,-189.6234"/>
<polygon fill="#000000" stroke="#000000" points="242.7735,-190.2923 242.0777,-179.7204 236.0289,-188.4188 242.7735,-190.2923"/>
</g>
<!-- 8&#45;&gt;9 -->
<g id="edge37" class="edge">
<title>8&#45;&gt;9</title>
<path fill="none" stroke="#000000" d="M438.2622,-288.5708C441.7371,-280.2309 445.9751,-270.0598 449.8464,-260.7686"/>
<polygon fill="#000000" stroke="#000000" points="453.0853,-262.0952 453.7007,-251.5182 446.6237,-259.4028 453.0853,-262.0952"/>
</g>
<!-- 8&#45;&gt;10 -->
<g id="edge38" class="edge">
<title>8&#45;&gt;10</title>
<path fill="none" stroke="#000000" d="M415.7469,-290.8389C396.6993,-272.2515 362.7457,-240.2374 331,-216 313.56,-202.6848 292.8332,-189.3368 276.3321,-179.2429"/>
<polygon fill="#000000" stroke="#000000" points="278.0154,-176.1707 267.6472,-173.9908 274.393,-182.1605 278.0154,-176.1707"/>
</g>
<!-- 4 -->
<g id="node12" class="node">
<title>4</title>
<ellipse fill="none" stroke="#000000" cx="245" cy="-522" rx="27" ry="18"/>
<text text-anchor="middle" x="245" y="-518.3" font-family="Times,serif" font-size="14.00" fill="#000000">4</text>
</g>
<!-- 4&#45;&gt;6 -->
<g id="edge22" class="edge">
<title>4&#45;&gt;6</title>
<path fill="none" stroke="#000000" d="M251.7441,-504.3428C261.1867,-479.6202 278.4351,-434.4608 289.5485,-405.3639"/>
<polygon fill="#000000" stroke="#000000" points="292.9023,-406.3923 293.2008,-395.8017 286.363,-403.8946 292.9023,-406.3923"/>
</g>
<!-- 4&#45;&gt;10 -->
<g id="edge23" class="edge">
<title>4&#45;&gt;10</title>
<path fill="none" stroke="#000000" d="M233.0417,-505.6634C206.7545,-467.7067 148.0431,-370.5079 171,-288 181.9036,-248.8123 208.6447,-209.6284 227.3041,-185.6036"/>
<polygon fill="#000000" stroke="#000000" points="230.052,-187.7713 233.5279,-177.7628 224.5693,-183.4192 230.052,-187.7713"/>
</g>
<!-- 4&#45;&gt;5 -->
<g id="edge21" class="edge">
<title>4&#45;&gt;5</title>
<path fill="none" stroke="#000000" d="M268.557,-512.8812C301.4,-500.1677 361.0882,-477.0626 398.2474,-462.6784"/>
<polygon fill="#000000" stroke="#000000" points="399.5721,-465.9188 407.6342,-459.0448 397.0451,-459.3908 399.5721,-465.9188"/>
</g>
<!-- 18 -->
<g id="node14" class="node">
<title>18</title>
<ellipse fill="none" stroke="#000000" cx="976" cy="-666" rx="27" ry="18"/>
<text text-anchor="middle" x="976" y="-662.3" font-family="Times,serif" font-size="14.00" fill="#000000">18</text>
</g>
<!-- 20 -->
<g id="node15" class="node">
<title>20</title>
<ellipse fill="none" stroke="#000000" cx="1125" cy="-594" rx="27" ry="18"/>
<text text-anchor="middle" x="1125" y="-590.3" font-family="Times,serif" font-size="14.00" fill="#000000">20</text>
</g>
<!-- 18&#45;&gt;20 -->
<g id="edge43" class="edge">
<title>18&#45;&gt;20</title>
<path fill="none" stroke="#000000" d="M997.9855,-655.3762C1023.2953,-643.1459 1065.0578,-622.9654 1093.741,-609.105"/>
<polygon fill="#000000" stroke="#000000" points="1095.4433,-612.1697 1102.9243,-604.6674 1092.3976,-605.867 1095.4433,-612.1697"/>
</g>
<!-- 23 -->
<g id="node16" class="node">
<title>23</title>
<ellipse fill="none" stroke="#000000" cx="883" cy="-450" rx="27" ry="18"/>
<text text-anchor="middle" x="883" y="-446.3" font-family="Times,serif" font-size="14.00" fill="#000000">23</text>
</g>
<!-- 18&#45;&gt;23 -->
<g id="edge44" class="edge">
<title>18&#45;&gt;23</title>
<path fill="none" stroke="#000000" d="M968.5466,-648.6889C952.3575,-611.0885 913.8843,-521.7312 894.5334,-476.7872"/>
<polygon fill="#000000" stroke="#000000" points="897.6582,-475.1942 890.4889,-467.3935 891.2288,-477.9625 897.6582,-475.1942"/>
</g>
<!-- 24 -->
<g id="node17" class="node">
<title>24</title>
<ellipse fill="none" stroke="#000000" cx="993" cy="-378" rx="27" ry="18"/>
<text text-anchor="middle" x="993" y="-374.3" font-family="Times,serif" font-size="14.00" fill="#000000">24</text>
</g>
<!-- 18&#45;&gt;24 -->
<g id="edge45" class="edge">
<title>18&#45;&gt;24</title>
<path fill="none" stroke="#000000" d="M977.0634,-647.9843C979.9375,-599.2939 987.8766,-464.7961 991.3438,-406.0573"/>
<polygon fill="#000000" stroke="#000000" points="994.8415,-406.1978 991.937,-396.0089 987.8537,-405.7852 994.8415,-406.1978"/>
</g>
<!-- 20&#45;&gt;23 -->
<g id="edge52" class="edge">
<title>20&#45;&gt;23</title>
<path fill="none" stroke="#000000" d="M1104.7835,-581.9703C1061.8997,-556.4527 961.6854,-496.8211 911.9944,-467.2529"/>
<polygon fill="#000000" stroke="#000000" points="913.7127,-464.2026 903.3292,-462.0967 910.1331,-470.2181 913.7127,-464.2026"/>
</g>
<!-- 29 -->
<g id="node21" class="node">
<title>29</title>
<ellipse fill="none" stroke="#000000" cx="1126" cy="-90" rx="27" ry="18"/>
<text text-anchor="middle" x="1126" y="-86.3" font-family="Times,serif" font-size="14.00" fill="#000000">29</text>
</g>
<!-- 20&#45;&gt;29 -->
<g id="edge54" class="edge">
<title>20&#45;&gt;29</title>
<path fill="none" stroke="#000000" d="M1143.5156,-580.6508C1183.8369,-549.8713 1276,-469.5094 1276,-378 1276,-378 1276,-378 1276,-234 1276,-169.259 1202.3844,-124.5557 1158.2961,-103.5882"/>
<polygon fill="#000000" stroke="#000000" points="1159.656,-100.3612 1149.1088,-99.3576 1156.728,-106.7195 1159.656,-100.3612"/>
</g>
<!-- 21 -->
<g id="node23" class="node">
<title>21</title>
<ellipse fill="none" stroke="#000000" cx="1088" cy="-522" rx="27" ry="18"/>
<text text-anchor="middle" x="1088" y="-518.3" font-family="Times,serif" font-size="14.00" fill="#000000">21</text>
</g>
<!-- 20&#45;&gt;21 -->
<g id="edge51" class="edge">
<title>20&#45;&gt;21</title>
<path fill="none" stroke="#000000" d="M1116.2315,-576.937C1111.8721,-568.4537 1106.5047,-558.0092 1101.6247,-548.513"/>
<polygon fill="#000000" stroke="#000000" points="1104.6463,-546.7352 1096.9626,-539.4407 1098.4203,-549.9348 1104.6463,-546.7352"/>
</g>
<!-- 25 -->
<g id="node24" class="node">
<title>25</title>
<ellipse fill="none" stroke="#000000" cx="1115" cy="-306" rx="27" ry="18"/>
<text text-anchor="middle" x="1115" y="-302.3" font-family="Times,serif" font-size="14.00" fill="#000000">25</text>
</g>
<!-- 20&#45;&gt;25 -->
<g id="edge53" class="edge">
<title>20&#45;&gt;25</title>
<path fill="none" stroke="#000000" d="M1126.8245,-576.0084C1130.4657,-536.6638 1137.5041,-440.0853 1128,-360 1126.9659,-351.2862 1125.0243,-341.944 1122.9511,-333.5212"/>
<polygon fill="#000000" stroke="#000000" points="1126.3268,-332.5955 1120.4091,-323.8074 1119.5548,-334.3677 1126.3268,-332.5955"/>
</g>
<!-- 23&#45;&gt;24 -->
<g id="edge63" class="edge">
<title>23&#45;&gt;24</title>
<path fill="none" stroke="#000000" d="M902.4126,-437.2936C919.742,-425.9507 945.3318,-409.201 964.8972,-396.3946"/>
<polygon fill="#000000" stroke="#000000" points="966.9613,-399.2267 973.4115,-390.8216 963.1276,-393.3698 966.9613,-399.2267"/>
</g>
<!-- 27 -->
<g id="node19" class="node">
<title>27</title>
<ellipse fill="none" stroke="#000000" cx="849" cy="-234" rx="27" ry="18"/>
<text text-anchor="middle" x="849" y="-230.3" font-family="Times,serif" font-size="14.00" fill="#000000">27</text>
</g>
<!-- 23&#45;&gt;27 -->
<g id="edge64" class="edge">
<title>23&#45;&gt;27</title>
<path fill="none" stroke="#000000" d="M880.1597,-431.9555C874.2347,-394.3144 860.5201,-307.1867 853.427,-262.1246"/>
<polygon fill="#000000" stroke="#000000" points="856.8686,-261.4792 851.8562,-252.1451 849.9538,-262.5677 856.8686,-261.4792"/>
</g>
<!-- 28 -->
<g id="node20" class="node">
<title>28</title>
<ellipse fill="none" stroke="#000000" cx="997" cy="-162" rx="27" ry="18"/>
<text text-anchor="middle" x="997" y="-158.3" font-family="Times,serif" font-size="14.00" fill="#000000">28</text>
</g>
<!-- 23&#45;&gt;28 -->
<g id="edge65" class="edge">
<title>23&#45;&gt;28</title>
<path fill="none" stroke="#000000" d="M885.5769,-432.0001C891.9381,-391.4107 910.8674,-290.4878 951,-216 957.1444,-204.5957 966.0057,-193.4464 974.3137,-184.2679"/>
<polygon fill="#000000" stroke="#000000" points="977.0831,-186.4323 981.3902,-176.7525 971.9867,-181.6337 977.0831,-186.4323"/>
</g>
<!-- 23&#45;&gt;29 -->
<g id="edge66" class="edge">
<title>23&#45;&gt;29</title>
<path fill="none" stroke="#000000" d="M870.3932,-434.0142C841.4045,-395.1806 775.2969,-293.3834 813,-216 835.742,-169.3234 858.2887,-166.6706 905,-144 965.8208,-114.4815 1044.1084,-100.2955 1089.3153,-94.135"/>
<polygon fill="#000000" stroke="#000000" points="1089.7904,-97.6028 1099.2534,-92.8381 1088.8845,-90.6617 1089.7904,-97.6028"/>
</g>
<!-- 30 -->
<g id="node22" class="node">
<title>30</title>
<ellipse fill="none" stroke="#000000" cx="997" cy="-18" rx="27" ry="18"/>
<text text-anchor="middle" x="997" y="-14.3" font-family="Times,serif" font-size="14.00" fill="#000000">30</text>
</g>
<!-- 23&#45;&gt;30 -->
<g id="edge67" class="edge">
<title>23&#45;&gt;30</title>
<path fill="none" stroke="#000000" d="M861.7431,-438.6849C825.5893,-417.7219 756,-369.1675 756,-306 756,-306 756,-306 756,-162 756,-68.0818 892.5406,-33.9638 960.0734,-22.8328"/>
<polygon fill="#000000" stroke="#000000" points="960.9476,-26.2388 970.288,-21.2381 959.8677,-19.3226 960.9476,-26.2388"/>
</g>
<!-- 24&#45;&gt;28 -->
<g id="edge70" class="edge">
<title>24&#45;&gt;28</title>
<path fill="none" stroke="#000000" d="M984.1201,-360.7006C969.9605,-330.7717 945.3816,-267.5841 961,-216 964.2661,-205.2127 970.4764,-194.6108 976.8313,-185.6963"/>
<polygon fill="#000000" stroke="#000000" points="979.6285,-187.8001 982.8771,-177.7156 974.0487,-183.5732 979.6285,-187.8001"/>
</g>
<!-- 24&#45;&gt;25 -->
<g id="edge68" class="edge">
<title>24&#45;&gt;25</title>
<path fill="none" stroke="#000000" d="M1013.4201,-365.9488C1033.2135,-354.2675 1063.4393,-336.4293 1085.7774,-323.2461"/>
<polygon fill="#000000" stroke="#000000" points="1087.6801,-326.1873 1094.5133,-318.0905 1084.1223,-320.1589 1087.6801,-326.1873"/>
</g>
<!-- 26 -->
<g id="node26" class="node">
<title>26</title>
<ellipse fill="none" stroke="#000000" cx="997" cy="-234" rx="27" ry="18"/>
<text text-anchor="middle" x="997" y="-230.3" font-family="Times,serif" font-size="14.00" fill="#000000">26</text>
</g>
<!-- 24&#45;&gt;26 -->
<g id="edge69" class="edge">
<title>24&#45;&gt;26</title>
<path fill="none" stroke="#000000" d="M993.5066,-359.7623C994.1889,-335.201 995.4098,-291.2474 996.2124,-262.3541"/>
<polygon fill="#000000" stroke="#000000" points="999.7184,-262.183 996.4975,-252.0896 992.7211,-261.9885 999.7184,-262.183"/>
</g>
<!-- 19 -->
<g id="node18" class="node">
<title>19</title>
<ellipse fill="none" stroke="#000000" cx="1314" cy="-666" rx="27" ry="18"/>
<text text-anchor="middle" x="1314" y="-662.3" font-family="Times,serif" font-size="14.00" fill="#000000">19</text>
</g>
<!-- 19&#45;&gt;20 -->
<g id="edge46" class="edge">
<title>19&#45;&gt;20</title>
<path fill="none" stroke="#000000" d="M1290.4452,-657.0267C1257.1079,-644.3268 1196.0111,-621.0518 1158.1199,-606.6171"/>
<polygon fill="#000000" stroke="#000000" points="1159.145,-603.2623 1148.5541,-602.973 1156.653,-609.8037 1159.145,-603.2623"/>
</g>
<!-- 19&#45;&gt;27 -->
<g id="edge47" class="edge">
<title>19&#45;&gt;27</title>
<path fill="none" stroke="#000000" d="M1308.7526,-648.1102C1288.3599,-579.7895 1212.4637,-336.7254 1151,-288 1145.7823,-283.8636 964.3559,-253.2255 885.259,-240.0239"/>
<polygon fill="#000000" stroke="#000000" points="885.6886,-236.5473 875.2492,-238.3551 884.5375,-243.452 885.6886,-236.5473"/>
</g>
<!-- 19&#45;&gt;28 -->
<g id="edge48" class="edge">
<title>19&#45;&gt;28</title>
<path fill="none" stroke="#000000" d="M1314,-647.8146C1314,-620.4983 1314,-567.25 1314,-522 1314,-522 1314,-522 1314,-378 1314,-243.4049 1116.4225,-186.7021 1033.233,-168.7929"/>
<polygon fill="#000000" stroke="#000000" points="1033.7148,-165.3182 1023.2111,-166.7048 1032.287,-172.171 1033.7148,-165.3182"/>
</g>
<!-- 19&#45;&gt;29 -->
<g id="edge49" class="edge">
<title>19&#45;&gt;29</title>
<path fill="none" stroke="#000000" d="M1321.6899,-648.6554C1332.7936,-621.9874 1352,-569.0576 1352,-522 1352,-522 1352,-522 1352,-234 1352,-145.198 1226.3617,-108.7651 1162.4373,-95.9753"/>
<polygon fill="#000000" stroke="#000000" points="1162.8461,-92.4902 1152.3674,-94.0541 1161.5343,-99.3662 1162.8461,-92.4902"/>
</g>
<!-- 19&#45;&gt;30 -->
<g id="edge50" class="edge">
<title>19&#45;&gt;30</title>
<path fill="none" stroke="#000000" d="M1328.6536,-650.5784C1350.7383,-625.6483 1390,-574.0136 1390,-522 1390,-522 1390,-522 1390,-162 1390,-86.456 1130.7486,-38.6331 1033.375,-23.3354"/>
<polygon fill="#000000" stroke="#000000" points="1033.8134,-19.8617 1023.3961,-21.793 1032.744,-26.7795 1033.8134,-19.8617"/>
</g>
<!-- 27&#45;&gt;28 -->
<g id="edge74" class="edge">
<title>27&#45;&gt;28</title>
<path fill="none" stroke="#000000" d="M870.8379,-223.3762C895.9778,-211.1459 937.4601,-190.9654 965.9508,-177.105"/>
<polygon fill="#000000" stroke="#000000" points="967.6113,-180.1895 975.0725,-172.6674 964.549,-173.8948 967.6113,-180.1895"/>
</g>
<!-- 27&#45;&gt;29 -->
<g id="edge75" class="edge">
<title>27&#45;&gt;29</title>
<path fill="none" stroke="#000000" d="M864.0155,-218.9177C884.3751,-199.2182 922.6201,-164.7979 961,-144 1002.6673,-121.4206 1055.395,-106.2068 1089.878,-97.8285"/>
<polygon fill="#000000" stroke="#000000" points="1091.0337,-101.1519 1099.9615,-95.4472 1089.4248,-94.3393 1091.0337,-101.1519"/>
</g>
<!-- 27&#45;&gt;30 -->
<g id="edge76" class="edge">
<title>27&#45;&gt;30</title>
<path fill="none" stroke="#000000" d="M858.9578,-217.1767C869.8833,-198.917 888.1175,-169.017 905,-144 929.3958,-107.8496 959.4984,-67.3285 978.4781,-42.2358"/>
<polygon fill="#000000" stroke="#000000" points="981.4434,-44.118 984.7,-34.0361 975.8671,-39.8867 981.4434,-44.118"/>
</g>
<!-- 28&#45;&gt;29 -->
<g id="edge77" class="edge">
<title>28&#45;&gt;29</title>
<path fill="none" stroke="#000000" d="M1017.7261,-150.432C1038.8521,-138.6407 1071.8408,-120.2284 1095.8562,-106.8244"/>
<polygon fill="#000000" stroke="#000000" points="1097.8706,-109.7084 1104.8968,-101.7785 1094.459,-103.596 1097.8706,-109.7084"/>
</g>
<!-- 28&#45;&gt;30 -->
<g id="edge78" class="edge">
<title>28&#45;&gt;30</title>
<path fill="none" stroke="#000000" d="M997,-143.7623C997,-119.201 997,-75.2474 997,-46.3541"/>
<polygon fill="#000000" stroke="#000000" points="1000.5001,-46.0896 997,-36.0896 993.5001,-46.0897 1000.5001,-46.0896"/>
</g>
<!-- 29&#45;&gt;30 -->
<g id="edge79" class="edge">
<title>29&#45;&gt;30</title>
<path fill="none" stroke="#000000" d="M1105.2739,-78.432C1084.1479,-66.6407 1051.1592,-48.2284 1027.1438,-34.8244"/>
<polygon fill="#000000" stroke="#000000" points="1028.541,-31.596 1018.1032,-29.7785 1025.1294,-37.7084 1028.541,-31.596"/>
</g>
<!-- 21&#45;&gt;24 -->
<g id="edge56" class="edge">
<title>21&#45;&gt;24</title>
<path fill="none" stroke="#000000" d="M1070.6789,-508.0494C1058.9044,-497.8906 1043.6006,-483.2841 1033,-468 1019.5979,-448.6767 1009.0512,-424.14 1002.1599,-405.5685"/>
<polygon fill="#000000" stroke="#000000" points="1005.3774,-404.1716 998.7125,-395.9357 998.7868,-406.5303 1005.3774,-404.1716"/>
</g>
<!-- 21&#45;&gt;29 -->
<g id="edge59" class="edge">
<title>21&#45;&gt;29</title>
<path fill="none" stroke="#000000" d="M1106.3929,-508.6223C1146.4473,-477.7844 1238,-397.3109 1238,-306 1238,-306 1238,-306 1238,-234 1238,-179.3419 1187.101,-132.9358 1153.9284,-108.4956"/>
<polygon fill="#000000" stroke="#000000" points="1155.6801,-105.4456 1145.5089,-102.4795 1151.6104,-111.1411 1155.6801,-105.4456"/>
</g>
<!-- 21&#45;&gt;25 -->
<g id="edge57" class="edge">
<title>21&#45;&gt;25</title>
<path fill="none" stroke="#000000" d="M1094.78,-504.2773C1098.4566,-493.8698 1102.7066,-480.3698 1105,-468 1113.5841,-421.7001 1115.2224,-366.8168 1115.3252,-334.285"/>
<polygon fill="#000000" stroke="#000000" points="1118.8251,-334.1484 1115.309,-324.154 1111.8251,-334.1597 1118.8251,-334.1484"/>
</g>
<!-- 22 -->
<g id="node25" class="node">
<title>22</title>
<ellipse fill="none" stroke="#000000" cx="1069" cy="-450" rx="27" ry="18"/>
<text text-anchor="middle" x="1069" y="-446.3" font-family="Times,serif" font-size="14.00" fill="#000000">22</text>
</g>
<!-- 21&#45;&gt;22 -->
<g id="edge55" class="edge">
<title>21&#45;&gt;22</title>
<path fill="none" stroke="#000000" d="M1083.3034,-504.2022C1081.2024,-496.2406 1078.676,-486.6671 1076.335,-477.7957"/>
<polygon fill="#000000" stroke="#000000" points="1079.6442,-476.6185 1073.7084,-467.8425 1072.8759,-478.4046 1079.6442,-476.6185"/>
</g>
<!-- 21&#45;&gt;26 -->
<g id="edge58" class="edge">
<title>21&#45;&gt;26</title>
<path fill="none" stroke="#000000" d="M1066.7175,-510.6636C1034.3983,-491.9452 974.8155,-451.0959 957,-396 941.6678,-348.5838 965.0013,-291.7443 981.9604,-259.5549"/>
<polygon fill="#000000" stroke="#000000" points="985.0334,-261.2301 986.7529,-250.7757 978.8893,-257.876 985.0334,-261.2301"/>
</g>
<!-- 25&#45;&gt;29 -->
<g id="edge72" class="edge">
<title>25&#45;&gt;29</title>
<path fill="none" stroke="#000000" d="M1115.9189,-287.9555C1117.8318,-250.3938 1122.2542,-163.5541 1124.5532,-118.4103"/>
<polygon fill="#000000" stroke="#000000" points="1128.0627,-118.3102 1125.0759,-108.1451 1121.0718,-117.9541 1128.0627,-118.3102"/>
</g>
<!-- 25&#45;&gt;26 -->
<g id="edge71" class="edge">
<title>25&#45;&gt;26</title>
<path fill="none" stroke="#000000" d="M1094.9829,-293.7862C1075.9965,-282.2013 1047.2613,-264.6679 1025.8121,-251.5803"/>
<polygon fill="#000000" stroke="#000000" points="1027.4747,-248.4947 1017.1153,-246.2737 1023.8287,-254.4702 1027.4747,-248.4947"/>
</g>
<!-- 22&#45;&gt;24 -->
<g id="edge60" class="edge">
<title>22&#45;&gt;24</title>
<path fill="none" stroke="#000000" d="M1053.2528,-435.0816C1042.553,-424.945 1028.219,-411.3654 1016.2163,-399.9944"/>
<polygon fill="#000000" stroke="#000000" points="1018.3937,-397.236 1008.7271,-392.8993 1013.5795,-402.3177 1018.3937,-397.236"/>
</g>
<!-- 22&#45;&gt;28 -->
<g id="edge62" class="edge">
<title>22&#45;&gt;28</title>
<path fill="none" stroke="#000000" d="M1068.8434,-431.7042C1067.9361,-391.3527 1062.6031,-292.25 1033,-216 1028.9629,-205.6015 1022.6644,-195.1698 1016.4573,-186.2857"/>
<polygon fill="#000000" stroke="#000000" points="1019.1019,-183.9733 1010.3678,-177.976 1013.4557,-188.1109 1019.1019,-183.9733"/>
</g>
<!-- 22&#45;&gt;25 -->
<g id="edge61" class="edge">
<title>22&#45;&gt;25</title>
<path fill="none" stroke="#000000" d="M1074.6405,-432.3428C1082.538,-407.6202 1096.9639,-362.4608 1106.2588,-333.3639"/>
<polygon fill="#000000" stroke="#000000" points="1109.6044,-334.3925 1109.3134,-323.8017 1102.9363,-332.2624 1109.6044,-334.3925"/>
</g>
<!-- 26&#45;&gt;28 -->
<g id="edge73" class="edge">
<title>26&#45;&gt;28</title>
<path fill="none" stroke="#000000" d="M997,-215.8314C997,-208.131 997,-198.9743 997,-190.4166"/>
<polygon fill="#000000" stroke="#000000" points="1000.5001,-190.4132 997,-180.4133 993.5001,-190.4133 1000.5001,-190.4132"/>
</g>
</g>
</svg>
