<?xml version="1.0" encoding="UTF-8" standalone="no"?>
<!DOCTYPE svg PUBLIC "-//W3C//DTD SVG 1.1//EN"
 "http://www.w3.org/Graphics/SVG/1.1/DTD/svg11.dtd">
<!-- Generated by graphviz version 2.40.1 (20161225.0304)
 -->
<!-- Title: %3 Pages: 1 -->
<svg width="2216pt" height="476pt"
 viewBox="0.00 0.00 2216.00 476.00" xmlns="http://www.w3.org/2000/svg" xmlns:xlink="http://www.w3.org/1999/xlink">
<g id="graph0" class="graph" transform="scale(1 1) rotate(0) translate(4 472)">
<title>%3</title>
<polygon fill="#ffffff" stroke="transparent" points="-4,4 -4,-472 2212,-472 2212,4 -4,4"/>
<!-- m -->
<g id="node1" class="node">
<title>m</title>
<ellipse fill="none" stroke="#000000" cx="1082" cy="-450" rx="27" ry="18"/>
<text text-anchor="middle" x="1082" y="-446.3" font-family="Times,serif" font-size="14.00" fill="#000000">m</text>
</g>
<!-- t3 -->
<g id="node2" class="node">
<title>t3</title>
<ellipse fill="none" stroke="#000000" cx="596" cy="-306" rx="27" ry="18"/>
<text text-anchor="middle" x="596" y="-302.3" font-family="Times,serif" font-size="14.00" fill="#000000">t3</text>
</g>
<!-- m&#45;&#45;t3 -->
<g id="edge1" class="edge">
<title>m&#45;&#45;t3</title>
<path fill="none" stroke="#000000" d="M1055.0549,-447.911C980.4502,-441.8415 772.5722,-422.9152 710,-396 668.9997,-378.3639 630.1983,-342.0914 610.155,-321.3839"/>
</g>
<!-- v0 -->
<g id="node3" class="node">
<title>v0</title>
<ellipse fill="none" stroke="#000000" cx="1020" cy="-162" rx="27" ry="18"/>
<text text-anchor="middle" x="1020" y="-158.3" font-family="Times,serif" font-size="14.00" fill="#000000">v0</text>
</g>
<!-- m&#45;&#45;v0 -->
<g id="edge2" class="edge">
<title>m&#45;&#45;v0</title>
<path fill="none" stroke="#000000" d="M1078.052,-431.9894C1070.4369,-397.2122 1053.2157,-318.3852 1039,-252 1033.6498,-227.0154 1027.5655,-198.1053 1023.7546,-179.9362"/>
</g>
<!-- v1 -->
<g id="node4" class="node">
<title>v1</title>
<ellipse fill="none" stroke="#000000" cx="1084" cy="-90" rx="27" ry="18"/>
<text text-anchor="middle" x="1084" y="-86.3" font-family="Times,serif" font-size="14.00" fill="#000000">v1</text>
</g>
<!-- m&#45;&#45;v1 -->
<g id="edge3" class="edge">
<title>m&#45;&#45;v1</title>
<path fill="none" stroke="#000000" d="M1102.8952,-438.3148C1107.7444,-435.9544 1112.9634,-433.6839 1118,-432 1201.9981,-403.9168 1236.181,-438.2912 1314,-396 1398.696,-349.9714 1464.2362,-307.8547 1435,-216 1423.1064,-178.6326 1417.0929,-165.039 1384,-144 1338.5593,-115.1108 1175.792,-98.0283 1110.943,-92.2368"/>
</g>
<!-- v2 -->
<g id="node5" class="node">
<title>v2</title>
<ellipse fill="none" stroke="#000000" cx="742" cy="-18" rx="27" ry="18"/>
<text text-anchor="middle" x="742" y="-14.3" font-family="Times,serif" font-size="14.00" fill="#000000">v2</text>
</g>
<!-- m&#45;&#45;v2 -->
<g id="edge4" class="edge">
<title>m&#45;&#45;v2</title>
<path fill="none" stroke="#000000" d="M1054.5703,-449.9088C921.7942,-449.2338 345.1934,-443.5667 173,-396 89.4577,-372.9223 0,-392.6712 0,-306 0,-306 0,-306 0,-162 0,-115.1222 15.0439,-96.5162 55,-72 112.0414,-37.0006 594.1827,-21.9303 714.7545,-18.6887"/>
</g>
<!-- t4 -->
<g id="node6" class="node">
<title>t4</title>
<ellipse fill="none" stroke="#000000" cx="541" cy="-234" rx="27" ry="18"/>
<text text-anchor="middle" x="541" y="-230.3" font-family="Times,serif" font-size="14.00" fill="#000000">t4</text>
</g>
<!-- m&#45;&#45;t4 -->
<g id="edge11" class="edge">
<title>m&#45;&#45;t4</title>
<path fill="none" stroke="#000000" d="M1054.8658,-448.5646C971.9353,-443.875 722.9826,-427.4656 649,-396 602.18,-376.0869 586.5645,-367.3932 560,-324 546.4093,-301.7995 542.4227,-271.383 541.3198,-252.2134"/>
</g>
<!-- t5 -->
<g id="node7" class="node">
<title>t5</title>
<ellipse fill="none" stroke="#000000" cx="237" cy="-378" rx="27" ry="18"/>
<text text-anchor="middle" x="237" y="-374.3" font-family="Times,serif" font-size="14.00" fill="#000000">t5</text>
</g>
<!-- m&#45;&#45;t5 -->
<g id="edge16" class="edge">
<title>m&#45;&#45;t5</title>
<path fill="none" stroke="#000000" d="M1054.9969,-449.4374C932.7273,-446.699 430.3504,-433.3435 278,-396 271.5067,-394.4084 264.7491,-391.8548 258.6375,-389.1651"/>
</g>
<!-- t6 -->
<g id="node8" class="node">
<title>t6</title>
<ellipse fill="none" stroke="#000000" cx="347" cy="-306" rx="27" ry="18"/>
<text text-anchor="middle" x="347" y="-302.3" font-family="Times,serif" font-size="14.00" fill="#000000">t6</text>
</g>
<!-- m&#45;&#45;t6 -->
<g id="edge20" class="edge">
<title>m&#45;&#45;t6</title>
<path fill="none" stroke="#000000" d="M1054.9453,-448.9671C938.447,-444.3592 482.9073,-424.64 426,-396 393.8716,-379.8306 369.089,-344.4139 356.3963,-323.1481"/>
</g>
<!-- t7 -->
<g id="node9" class="node">
<title>t7</title>
<ellipse fill="none" stroke="#000000" cx="279" cy="-234" rx="27" ry="18"/>
<text text-anchor="middle" x="279" y="-230.3" font-family="Times,serif" font-size="14.00" fill="#000000">t7</text>
</g>
<!-- m&#45;&#45;t7 -->
<g id="edge25" class="edge">
<title>m&#45;&#45;t7</title>
<path fill="none" stroke="#000000" d="M1054.7366,-449.0514C932.9391,-444.6595 441.8814,-425.2628 380,-396 339.9321,-377.0525 334.2749,-361.719 311,-324 296.8053,-300.9963 287.7135,-270.7994 282.9811,-251.8953"/>
</g>
<!-- t8 -->
<g id="node10" class="node">
<title>t8</title>
<ellipse fill="none" stroke="#000000" cx="169" cy="-234" rx="27" ry="18"/>
<text text-anchor="middle" x="169" y="-230.3" font-family="Times,serif" font-size="14.00" fill="#000000">t8</text>
</g>
<!-- m&#45;&#45;t8 -->
<g id="edge31" class="edge">
<title>m&#45;&#45;t8</title>
<path fill="none" stroke="#000000" d="M1054.8442,-449.2407C910.0806,-445.08 234.4741,-424.1991 201,-396 158.6839,-360.3522 161.9845,-286.3779 166.1718,-252.1276"/>
</g>
<!-- t9 -->
<g id="node11" class="node">
<title>t9</title>
<ellipse fill="none" stroke="#000000" cx="765" cy="-234" rx="27" ry="18"/>
<text text-anchor="middle" x="765" y="-230.3" font-family="Times,serif" font-size="14.00" fill="#000000">t9</text>
</g>
<!-- m&#45;&#45;t9 -->
<g id="edge36" class="edge">
<title>m&#45;&#45;t9</title>
<path fill="none" stroke="#000000" d="M1055.1574,-447.8119C995.321,-442.4255 853.4744,-426.6774 818,-396 774.9123,-358.7388 766.6565,-285.9147 765.2119,-252.0797"/>
</g>
<!-- t10 -->
<g id="node12" class="node">
<title>t10</title>
<ellipse fill="none" stroke="#000000" cx="854" cy="-378" rx="27" ry="18"/>
<text text-anchor="middle" x="854" y="-374.3" font-family="Times,serif" font-size="14.00" fill="#000000">t10</text>
</g>
<!-- m&#45;&#45;t10 -->
<g id="edge40" class="edge">
<title>m&#45;&#45;t10</title>
<path fill="none" stroke="#000000" d="M1057.166,-442.1577C1013.1928,-428.2714 922.1619,-399.5248 878.4583,-385.7237"/>
</g>
<!-- t11 -->
<g id="node13" class="node">
<title>t11</title>
<ellipse fill="none" stroke="#000000" cx="891" cy="-306" rx="27" ry="18"/>
<text text-anchor="middle" x="891" y="-302.3" font-family="Times,serif" font-size="14.00" fill="#000000">t11</text>
</g>
<!-- m&#45;&#45;t11 -->
<g id="edge45" class="edge">
<title>m&#45;&#45;t11</title>
<path fill="none" stroke="#000000" d="M1060.5551,-438.6297C1041.8571,-428.3704 1014.3121,-412.4102 992,-396 959.4575,-372.0655 925.0509,-339.6656 905.9754,-320.98"/>
</g>
<!-- t12 -->
<g id="node14" class="node">
<title>t12</title>
<ellipse fill="none" stroke="#000000" cx="700" cy="-306" rx="27" ry="18"/>
<text text-anchor="middle" x="700" y="-302.3" font-family="Times,serif" font-size="14.00" fill="#000000">t12</text>
</g>
<!-- m&#45;&#45;t12 -->
<g id="edge51" class="edge">
<title>m&#45;&#45;t12</title>
<path fill="none" stroke="#000000" d="M1054.9906,-448.9615C983.3221,-445.7117 790.439,-433.5988 741,-396 717.9032,-378.4347 707.4334,-344.8385 702.9847,-324.0323"/>
</g>
<!-- t13 -->
<g id="node15" class="node">
<title>t13</title>
<ellipse fill="none" stroke="#000000" cx="1640" cy="-378" rx="27" ry="18"/>
<text text-anchor="middle" x="1640" y="-374.3" font-family="Times,serif" font-size="14.00" fill="#000000">t13</text>
</g>
<!-- m&#45;&#45;t13 -->
<g id="edge56" class="edge">
<title>m&#45;&#45;t13</title>
<path fill="none" stroke="#000000" d="M1102.3899,-438.0971C1107.3514,-435.6867 1112.7459,-433.4495 1118,-432 1324.6561,-374.9895 1390.9845,-447.8312 1599,-396 1605.4871,-394.3836 1612.2427,-391.8218 1618.3543,-389.1323"/>
</g>
<!-- t14 -->
<g id="node16" class="node">
<title>t14</title>
<ellipse fill="none" stroke="#000000" cx="1530" cy="-306" rx="27" ry="18"/>
<text text-anchor="middle" x="1530" y="-302.3" font-family="Times,serif" font-size="14.00" fill="#000000">t14</text>
</g>
<!-- m&#45;&#45;t14 -->
<g id="edge60" class="edge">
<title>m&#45;&#45;t14</title>
<path fill="none" stroke="#000000" d="M1102.4186,-438.1984C1107.3789,-435.7838 1112.7656,-433.5193 1118,-432 1193.9382,-409.9582 1404.5823,-437.3194 1472,-396 1499.1013,-379.3899 1515.8756,-344.8135 1524.0269,-323.6837"/>
</g>
<!-- t26 -->
<g id="node17" class="node">
<title>t26</title>
<ellipse fill="none" stroke="#000000" cx="1585" cy="-234" rx="27" ry="18"/>
<text text-anchor="middle" x="1585" y="-230.3" font-family="Times,serif" font-size="14.00" fill="#000000">t26</text>
</g>
<!-- m&#45;&#45;t26 -->
<g id="edge65" class="edge">
<title>m&#45;&#45;t26</title>
<path fill="none" stroke="#000000" d="M1102.41,-438.1685C1107.3707,-435.7552 1112.7597,-433.4987 1118,-432 1282.8073,-384.8654 1349.0799,-473.4504 1502,-396 1540.195,-376.6551 1546.7111,-362.2234 1566,-324 1577.6552,-300.9038 1582.1679,-270.9981 1583.9104,-252.15"/>
</g>
<!-- t15 -->
<g id="node19" class="node">
<title>t15</title>
<ellipse fill="none" stroke="#000000" cx="1759" cy="-306" rx="27" ry="18"/>
<text text-anchor="middle" x="1759" y="-302.3" font-family="Times,serif" font-size="14.00" fill="#000000">t15</text>
</g>
<!-- m&#45;&#45;t15 -->
<g id="edge71" class="edge">
<title>m&#45;&#45;t15</title>
<path fill="none" stroke="#000000" d="M1102.3792,-438.0579C1107.3411,-435.6491 1112.7385,-433.4224 1118,-432 1237.9515,-399.5712 1563.8507,-449.5026 1676,-396 1709.38,-380.0755 1735.728,-344.2206 1749.1824,-322.8849"/>
</g>
<!-- t16 -->
<g id="node20" class="node">
<title>t16</title>
<ellipse fill="none" stroke="#000000" cx="1809" cy="-234" rx="27" ry="18"/>
<text text-anchor="middle" x="1809" y="-230.3" font-family="Times,serif" font-size="14.00" fill="#000000">t16</text>
</g>
<!-- m&#45;&#45;t16 -->
<g id="edge76" class="edge">
<title>m&#45;&#45;t16</title>
<path fill="none" stroke="#000000" d="M1102.3752,-438.043C1107.3373,-435.6349 1112.7357,-433.4122 1118,-432 1373.4524,-363.4722 1462.0481,-482.4642 1712,-396 1765.1293,-377.6214 1789.9087,-373.797 1816,-324 1827.9287,-301.2334 1821.7009,-270.7004 1815.6841,-251.6952"/>
</g>
<!-- t17 -->
<g id="node21" class="node">
<title>t17</title>
<ellipse fill="none" stroke="#000000" cx="1399" cy="-234" rx="27" ry="18"/>
<text text-anchor="middle" x="1399" y="-230.3" font-family="Times,serif" font-size="14.00" fill="#000000">t17</text>
</g>
<!-- m&#45;&#45;t17 -->
<g id="edge82" class="edge">
<title>m&#45;&#45;t17</title>
<path fill="none" stroke="#000000" d="M1102.9535,-438.4828C1107.7997,-436.1137 1113.0027,-433.7972 1118,-432 1184.9574,-407.9205 1210.4864,-428.0802 1274,-396 1317.89,-373.8315 1328.4457,-363.2979 1358,-324 1374.9249,-301.4953 1386.9912,-270.8887 1393.478,-251.7967"/>
</g>
<!-- t18 -->
<g id="node22" class="node">
<title>t18</title>
<ellipse fill="none" stroke="#000000" cx="1213" cy="-378" rx="27" ry="18"/>
<text text-anchor="middle" x="1213" y="-374.3" font-family="Times,serif" font-size="14.00" fill="#000000">t18</text>
</g>
<!-- m&#45;&#45;t18 -->
<g id="edge87" class="edge">
<title>m&#45;&#45;t18</title>
<path fill="none" stroke="#000000" d="M1103.0474,-438.432C1127.4934,-424.996 1167.5811,-402.9631 1192.0048,-389.5393"/>
</g>
<!-- t19 -->
<g id="node23" class="node">
<title>t19</title>
<ellipse fill="none" stroke="#000000" cx="1213" cy="-306" rx="27" ry="18"/>
<text text-anchor="middle" x="1213" y="-302.3" font-family="Times,serif" font-size="14.00" fill="#000000">t19</text>
</g>
<!-- m&#45;&#45;t19 -->
<g id="edge91" class="edge">
<title>m&#45;&#45;t19</title>
<path fill="none" stroke="#000000" d="M1096.0193,-434.5895C1121.1011,-407.0186 1173.39,-349.5407 1198.6844,-321.7363"/>
</g>
<!-- t20 -->
<g id="node24" class="node">
<title>t20</title>
<ellipse fill="none" stroke="#000000" cx="1289" cy="-234" rx="27" ry="18"/>
<text text-anchor="middle" x="1289" y="-230.3" font-family="Times,serif" font-size="14.00" fill="#000000">t20</text>
</g>
<!-- m&#45;&#45;t20 -->
<g id="edge95" class="edge">
<title>m&#45;&#45;t20</title>
<path fill="none" stroke="#000000" d="M1103.0103,-438.6356C1107.8535,-436.2586 1113.0409,-433.9002 1118,-432 1174.3832,-410.3954 1205.7034,-438.086 1249,-396 1288.8842,-357.2311 1291.4421,-285.4905 1290.2283,-252.0433"/>
</g>
<!-- t21 -->
<g id="node25" class="node">
<title>t21</title>
<ellipse fill="none" stroke="#000000" cx="1103" cy="-234" rx="27" ry="18"/>
<text text-anchor="middle" x="1103" y="-230.3" font-family="Times,serif" font-size="14.00" fill="#000000">t21</text>
</g>
<!-- m&#45;&#45;t21 -->
<g id="edge100" class="edge">
<title>m&#45;&#45;t21</title>
<path fill="none" stroke="#000000" d="M1083.7543,-431.9555C1087.7073,-391.2967 1097.2737,-292.8988 1101.2359,-252.1451"/>
</g>
<!-- t22 -->
<g id="node26" class="node">
<title>t22</title>
<ellipse fill="none" stroke="#000000" cx="2035" cy="-378" rx="27" ry="18"/>
<text text-anchor="middle" x="2035" y="-374.3" font-family="Times,serif" font-size="14.00" fill="#000000">t22</text>
</g>
<!-- m&#45;&#45;t22 -->
<g id="edge104" class="edge">
<title>m&#45;&#45;t22</title>
<path fill="none" stroke="#000000" d="M1102.3603,-437.9866C1107.323,-435.5808 1112.7254,-433.3733 1118,-432 1287.2086,-387.9443 1729.8762,-411.9172 1904,-396 1940.464,-392.6667 1982.343,-386.4996 2008.7345,-382.3239"/>
</g>
<!-- t23 -->
<g id="node27" class="node">
<title>t23</title>
<ellipse fill="none" stroke="#000000" cx="2181" cy="-306" rx="27" ry="18"/>
<text text-anchor="middle" x="2181" y="-302.3" font-family="Times,serif" font-size="14.00" fill="#000000">t23</text>
</g>
<!-- m&#45;&#45;t23 -->
<g id="edge107" class="edge">
<title>m&#45;&#45;t23</title>
<path fill="none" stroke="#000000" d="M1102.3524,-437.9559C1107.3154,-435.5514 1112.72,-433.3522 1118,-432 1323.3036,-379.4237 1872.787,-471.0028 2071,-396 2111.8478,-380.5434 2148.7954,-343.4366 2167.7091,-322.0066"/>
</g>
<!-- t3&#45;&#45;v0 -->
<g id="edge5" class="edge">
<title>t3&#45;&#45;v0</title>
<path fill="none" stroke="#000000" d="M609.4611,-290.3893C628.2002,-269.7676 664.239,-233.9656 703,-216 754.7909,-191.995 926.1238,-171.8829 992.9625,-164.7624"/>
</g>
<!-- t3&#45;&#45;v1 -->
<g id="edge6" class="edge">
<title>t3&#45;&#45;v1</title>
<path fill="none" stroke="#000000" d="M604.142,-288.7624C621.2212,-254.7063 664.2924,-179.0665 725,-144 781.7599,-111.2138 983.2811,-96.0567 1056.856,-91.5255"/>
</g>
<!-- t3&#45;&#45;v2 -->
<g id="edge7" class="edge">
<title>t3&#45;&#45;v2</title>
<path fill="none" stroke="#000000" d="M570.8396,-298.8222C549.0861,-291.1325 518.9988,-276.5849 505,-252 497.083,-238.096 499.8734,-231.1564 505,-216 530.9788,-139.1955 552.6742,-121.3561 617,-72 647.5708,-48.5435 689.888,-33.0652 716.5995,-24.9149"/>
</g>
<!-- t3&#45;&#45;t4 -->
<g id="edge12" class="edge">
<title>t3&#45;&#45;t4</title>
<path fill="none" stroke="#000000" d="M583.5196,-289.6621C574.5186,-277.8788 562.4207,-262.0416 553.431,-250.2733"/>
</g>
<!-- v0&#45;&#45;v1 -->
<g id="edge8" class="edge">
<title>v0&#45;&#45;v1</title>
<path fill="none" stroke="#000000" d="M1033.887,-146.3771C1044.622,-134.3003 1059.4119,-117.6616 1070.1401,-105.5924"/>
</g>
<!-- v0&#45;&#45;v2 -->
<g id="edge9" class="edge">
<title>v0&#45;&#45;v2</title>
<path fill="none" stroke="#000000" d="M998.6474,-150.9397C946.9003,-124.1354 815.2473,-55.941 763.4253,-29.098"/>
</g>
<!-- v1&#45;&#45;v2 -->
<g id="edge10" class="edge">
<title>v1&#45;&#45;v2</title>
<path fill="none" stroke="#000000" d="M1058.0137,-84.5292C994.4145,-71.1399 831.5047,-36.8431 767.9467,-23.4625"/>
</g>
<!-- t4&#45;&#45;v0 -->
<g id="edge13" class="edge">
<title>t4&#45;&#45;v0</title>
<path fill="none" stroke="#000000" d="M567.4812,-229.8907C591.1915,-226.2197 626.911,-220.7102 658,-216 783.3371,-197.0104 933.1685,-174.8235 993.1999,-165.955"/>
</g>
<!-- t4&#45;&#45;v1 -->
<g id="edge14" class="edge">
<title>t4&#45;&#45;v1</title>
<path fill="none" stroke="#000000" d="M554.6785,-218.3738C575.4725,-195.028 614.5621,-152.8336 633,-144 708.8287,-107.6705 971.2754,-94.3958 1056.8139,-90.9754"/>
</g>
<!-- t4&#45;&#45;v2 -->
<g id="edge15" class="edge">
<title>t4&#45;&#45;v2</title>
<path fill="none" stroke="#000000" d="M547.4006,-216.5C554.9416,-197.3888 568.7859,-166.5068 587,-144 627.2504,-94.2632 689.9927,-50.7713 721.9003,-30.3568"/>
</g>
<!-- t5&#45;&#45;v0 -->
<g id="edge17" class="edge">
<title>t5&#45;&#45;v0</title>
<path fill="none" stroke="#000000" d="M230.9685,-360.2273C220.9124,-326.9104 205.3155,-254.9244 243,-216 269.659,-188.4639 858.679,-167.3424 992.9312,-162.8754"/>
</g>
<!-- t5&#45;&#45;v1 -->
<g id="edge18" class="edge">
<title>t5&#45;&#45;v1</title>
<path fill="none" stroke="#000000" d="M262.5476,-371.6574C292.7371,-363.4789 343.8126,-347.4598 383,-324 486.7452,-261.8922 476.319,-192.6843 587,-144 672.5044,-106.3899 965.5896,-93.8496 1056.7295,-90.8103"/>
</g>
<!-- t5&#45;&#45;v2 -->
<g id="edge19" class="edge">
<title>t5&#45;&#45;v2</title>
<path fill="none" stroke="#000000" d="M211.3916,-372.281C157.6449,-358.6038 38,-318.6506 38,-234 38,-234 38,-234 38,-162 38,-109.9317 66.8361,-96.0833 113,-72 166.9925,-43.8326 601.3192,-23.8728 714.9005,-19.0995"/>
</g>
<!-- t5&#45;&#45;t6 -->
<g id="edge21" class="edge">
<title>t5&#45;&#45;t6</title>
<path fill="none" stroke="#000000" d="M256.4126,-365.2936C276.3961,-352.2135 307.3638,-331.9437 327.4115,-318.8216"/>
</g>
<!-- t5&#45;&#45;t7 -->
<g id="edge26" class="edge">
<title>t5&#45;&#45;t7</title>
<path fill="none" stroke="#000000" d="M242.2344,-360.0535C250.3267,-332.3085 265.7795,-279.3275 273.8316,-251.7204"/>
</g>
<!-- t5&#45;&#45;t8 -->
<g id="edge32" class="edge">
<title>t5&#45;&#45;t8</title>
<path fill="none" stroke="#000000" d="M224.9584,-361.551C217.6894,-351.1374 208.5899,-337.1927 202,-324 189.9523,-299.8812 179.9376,-270.2471 174.2074,-251.7364"/>
</g>
<!-- t6&#45;&#45;v0 -->
<g id="edge22" class="edge">
<title>t6&#45;&#45;v0</title>
<path fill="none" stroke="#000000" d="M365.2628,-292.1962C393.5204,-271.6574 450.3036,-233.5888 505,-216 597.4304,-186.2771 900.5202,-168.2682 992.9792,-163.3661"/>
</g>
<!-- t6&#45;&#45;v1 -->
<g id="edge23" class="edge">
<title>t6&#45;&#45;v1</title>
<path fill="none" stroke="#000000" d="M344.1173,-288.0536C341.9868,-268.2605 341.8037,-236.5057 358,-216 386.5023,-179.9142 413.2765,-199.3317 455,-180 484.6116,-166.2801 487.8592,-153.7641 519,-144 621.3684,-111.9028 958.366,-95.3396 1056.7851,-91.1067"/>
</g>
<!-- t6&#45;&#45;v2 -->
<g id="edge24" class="edge">
<title>t6&#45;&#45;v2</title>
<path fill="none" stroke="#000000" d="M320.0641,-303.9878C262.2681,-299.0829 129.2268,-284.455 100,-252 67.7912,-216.2336 70.9183,-187.269 92,-144 114.742,-97.3234 135.7868,-91.2715 184,-72 282.3961,-32.6697 617.1145,-21.1782 714.9412,-18.6222"/>
</g>
<!-- t6&#45;&#45;t7 -->
<g id="edge27" class="edge">
<title>t6&#45;&#45;t7</title>
<path fill="none" stroke="#000000" d="M332.5789,-290.7307C321.0391,-278.512 304.9346,-261.4602 293.4003,-249.2473"/>
</g>
<!-- t7&#45;&#45;v0 -->
<g id="edge28" class="edge">
<title>t7&#45;&#45;v0</title>
<path fill="none" stroke="#000000" d="M305.5832,-230.7187C336.4388,-226.9551 388.8673,-220.6994 434,-216 649.4297,-193.5684 909.9275,-171.2564 993.1096,-164.2493"/>
</g>
<!-- t7&#45;&#45;v1 -->
<g id="edge29" class="edge">
<title>t7&#45;&#45;v1</title>
<path fill="none" stroke="#000000" d="M301.102,-223.6573C349.5805,-201.0438 462.4206,-148.8279 481,-144 592.3922,-115.0546 954.4909,-96.1143 1056.8331,-91.2441"/>
</g>
<!-- t7&#45;&#45;v2 -->
<g id="edge30" class="edge">
<title>t7&#45;&#45;v2</title>
<path fill="none" stroke="#000000" d="M278.7087,-215.7859C279.2424,-181.7241 285.6899,-108.5331 329,-72 358.6058,-47.0268 627.9322,-26.0315 714.9914,-19.8476"/>
</g>
<!-- t8&#45;&#45;v0 -->
<g id="edge33" class="edge">
<title>t8&#45;&#45;v0</title>
<path fill="none" stroke="#000000" d="M190.637,-222.8327C196.7486,-220.1431 203.5063,-217.59 210,-216 363.4916,-178.4171 869.6144,-165.2416 992.7956,-162.5515"/>
</g>
<!-- t8&#45;&#45;v1 -->
<g id="edge34" class="edge">
<title>t8&#45;&#45;v1</title>
<path fill="none" stroke="#000000" d="M190.5115,-222.8602C230.0039,-203.0103 317.2537,-161.9262 396,-144 525.3815,-114.5469 945.9302,-95.6354 1056.9314,-91.0731"/>
</g>
<!-- t8&#45;&#45;v2 -->
<g id="edge35" class="edge">
<title>t8&#45;&#45;v2</title>
<path fill="none" stroke="#000000" d="M177.0586,-216.6156C193.9879,-182.2957 236.8028,-106.2049 298,-72 370.188,-31.652 629.6212,-21.0627 714.7379,-18.6437"/>
</g>
<!-- t9&#45;&#45;v0 -->
<g id="edge37" class="edge">
<title>t9&#45;&#45;v0</title>
<path fill="none" stroke="#000000" d="M789.9148,-226.9652C838.6648,-213.2005 946.1529,-182.8509 994.9841,-169.0633"/>
</g>
<!-- t9&#45;&#45;v1 -->
<g id="edge38" class="edge">
<title>t9&#45;&#45;v1</title>
<path fill="none" stroke="#000000" d="M774.6761,-216.8099C787.2209,-196.1777 811.0792,-162.1027 841,-144 877.5136,-121.9085 1002.3186,-101.7634 1057.4516,-93.71"/>
</g>
<!-- t9&#45;&#45;v2 -->
<g id="edge39" class="edge">
<title>t9&#45;&#45;v2</title>
<path fill="none" stroke="#000000" d="M763.0786,-215.9555C758.7492,-175.2967 748.2716,-76.8988 743.9321,-36.1451"/>
</g>
<!-- t10&#45;&#45;v0 -->
<g id="edge42" class="edge">
<title>t10&#45;&#45;v0</title>
<path fill="none" stroke="#000000" d="M874.3737,-366.1785C890.1027,-356.3354 911.694,-341.1888 927,-324 948.4048,-299.9621 992.5299,-215.8024 1011.2718,-179.2089"/>
</g>
<!-- t10&#45;&#45;v1 -->
<g id="edge43" class="edge">
<title>t10&#45;&#45;v1</title>
<path fill="none" stroke="#000000" d="M851.4657,-360.0132C849.493,-341.5556 848.1129,-312.1968 855,-288 875.4696,-216.0826 884.5868,-191.9044 942,-144 976.2251,-115.4432 1027.1469,-101.0568 1057.805,-94.5766"/>
</g>
<!-- t10&#45;&#45;v2 -->
<g id="edge44" class="edge">
<title>t10&#45;&#45;v2</title>
<path fill="none" stroke="#000000" d="M826.8314,-375.3122C763.0511,-368.6396 605.682,-349.9625 560,-324 523.0326,-302.9903 511.9556,-291.8036 497,-252 466.752,-171.4965 498.1636,-122.186 568,-72 613.3345,-39.4215 678.8671,-26.0971 715.197,-20.9632"/>
</g>
<!-- t10&#45;&#45;t9 -->
<g id="edge41" class="edge">
<title>t10&#45;&#45;t9</title>
<path fill="none" stroke="#000000" d="M842.3316,-361.6751C834.876,-351.075 825.119,-336.8837 817,-324 801.3179,-299.1149 784.5246,-269.4325 774.3929,-251.1505"/>
</g>
<!-- t10&#45;&#45;t11 -->
<g id="edge46" class="edge">
<title>t10&#45;&#45;t11</title>
<path fill="none" stroke="#000000" d="M862.7685,-360.937C868.5811,-349.626 876.1855,-334.8282 882.0374,-323.4407"/>
</g>
<!-- t11&#45;&#45;v0 -->
<g id="edge48" class="edge">
<title>t11&#45;&#45;v0</title>
<path fill="none" stroke="#000000" d="M901.8732,-289.2468C914.3791,-270.523 936.0276,-239.7235 958,-216 971.7732,-201.1291 989.3428,-186.141 1002.2595,-175.7411"/>
</g>
<!-- t11&#45;&#45;v1 -->
<g id="edge49" class="edge">
<title>t11&#45;&#45;v1</title>
<path fill="none" stroke="#000000" d="M895.6327,-287.9547C900.8943,-269.1922 910.5316,-239.3552 924,-216 944.809,-179.9154 951.7575,-170.373 984,-144 1007.6722,-124.6372 1039.3381,-108.9255 1060.6397,-99.542"/>
</g>
<!-- t11&#45;&#45;v2 -->
<g id="edge50" class="edge">
<title>t11&#45;&#45;v2</title>
<path fill="none" stroke="#000000" d="M882.1256,-288.8468C855.6245,-237.6232 777.2682,-86.1694 750.8279,-35.0633"/>
</g>
<!-- t11&#45;&#45;t9 -->
<g id="edge47" class="edge">
<title>t11&#45;&#45;t9</title>
<path fill="none" stroke="#000000" d="M870.4755,-294.2717C847.045,-280.8829 808.9425,-259.11 785.5157,-245.7233"/>
</g>
<!-- t12&#45;&#45;v0 -->
<g id="edge53" class="edge">
<title>t12&#45;&#45;v0</title>
<path fill="none" stroke="#000000" d="M700.5825,-287.863C702.272,-267.2803 708.2892,-234.2117 729,-216 768.1657,-181.5603 928.1977,-167.7846 992.7822,-163.5568"/>
</g>
<!-- t12&#45;&#45;v1 -->
<g id="edge54" class="edge">
<title>t12&#45;&#45;v1</title>
<path fill="none" stroke="#000000" d="M696.2609,-287.9564C693.2703,-268.9284 691.2825,-238.6291 703,-216 727.3605,-168.9545 749.5737,-165.4851 798,-144 887.1434,-104.4501 1004.4304,-93.8418 1056.7589,-91.0158"/>
</g>
<!-- t12&#45;&#45;v2 -->
<g id="edge55" class="edge">
<title>t12&#45;&#45;v2</title>
<path fill="none" stroke="#000000" d="M675.3733,-298.2921C662.5636,-294.5872 646.5751,-290.4329 632,-288 577.1701,-278.8478 170.8664,-292.6967 133,-252 66.0963,-180.0957 71.2757,-169.3822 250,-72 331.2091,-27.7513 623.6873,-19.7361 714.7427,-18.3056"/>
</g>
<!-- t12&#45;&#45;t9 -->
<g id="edge52" class="edge">
<title>t12&#45;&#45;t9</title>
<path fill="none" stroke="#000000" d="M714.104,-290.3771C725.0067,-278.3003 740.0278,-261.6616 750.9235,-249.5924"/>
</g>
<!-- t13&#45;&#45;v0 -->
<g id="edge57" class="edge">
<title>t13&#45;&#45;v0</title>
<path fill="none" stroke="#000000" d="M1612.7767,-376.4931C1518.7027,-371.0607 1211.2157,-351.3472 1177,-324 1137.2515,-292.2306 1173.3695,-253.5229 1139,-216 1114.022,-188.7302 1072.608,-174.2946 1045.8146,-167.4051"/>
</g>
<!-- t13&#45;&#45;v1 -->
<g id="edge58" class="edge">
<title>t13&#45;&#45;v1</title>
<path fill="none" stroke="#000000" d="M1641.7394,-359.8561C1643.9188,-328.6523 1644.8531,-263.5947 1621,-216 1615.7882,-205.6007 1555.5367,-148.9282 1545,-144 1466.9893,-107.5128 1197.8597,-94.3098 1111.1508,-90.9455"/>
</g>
<!-- t13&#45;&#45;v2 -->
<g id="edge59" class="edge">
<title>t13&#45;&#45;v2</title>
<path fill="none" stroke="#000000" d="M1666.8523,-375.1558C1723.2741,-367.4751 1851.9844,-340.4992 1889,-252 1920.9043,-175.7212 1912.8859,-114.5621 1842,-72 1794.5647,-43.5183 933.3925,-22.3898 768.9932,-18.6065"/>
</g>
<!-- t13&#45;&#45;t14 -->
<g id="edge61" class="edge">
<title>t13&#45;&#45;t14</title>
<path fill="none" stroke="#000000" d="M1620.5874,-365.2936C1600.6039,-352.2135 1569.6362,-331.9437 1549.5885,-318.8216"/>
</g>
<!-- t13&#45;&#45;t26 -->
<g id="edge66" class="edge">
<title>t13&#45;&#45;t26</title>
<path fill="none" stroke="#000000" d="M1633.2559,-360.3428C1622.6999,-332.7053 1602.3891,-279.5278 1591.7992,-251.8017"/>
</g>
<!-- t13&#45;&#45;t15 -->
<g id="edge72" class="edge">
<title>t13&#45;&#45;t15</title>
<path fill="none" stroke="#000000" d="M1660.1867,-365.7862C1682.0694,-352.5463 1716.793,-331.537 1738.7142,-318.2737"/>
</g>
<!-- t13&#45;&#45;t16 -->
<g id="edge77" class="edge">
<title>t13&#45;&#45;t16</title>
<path fill="none" stroke="#000000" d="M1665.9018,-372.3668C1705.4839,-363.2233 1778.2127,-344.1366 1795,-324 1811.8085,-303.838 1812.7051,-271.9812 1811.258,-252.0738"/>
</g>
<!-- t13&#45;&#45;t17 -->
<g id="edge83" class="edge">
<title>t13&#45;&#45;t17</title>
<path fill="none" stroke="#000000" d="M1614.3132,-371.8855C1583.9899,-363.9264 1532.7857,-348.1182 1494,-324 1460.8156,-303.3649 1429.3382,-269.8307 1412.254,-250.0457"/>
</g>
<!-- t14&#45;&#45;v0 -->
<g id="edge62" class="edge">
<title>t14&#45;&#45;v0</title>
<path fill="none" stroke="#000000" d="M1517.9917,-289.439C1501.7582,-268.4535 1470.7004,-232.9768 1435,-216 1365.6123,-183.0036 1127.6145,-167.6704 1046.9698,-163.3367"/>
</g>
<!-- t14&#45;&#45;v1 -->
<g id="edge63" class="edge">
<title>t14&#45;&#45;v1</title>
<path fill="none" stroke="#000000" d="M1528.8441,-287.9738C1525.6171,-253.8967 1513.4662,-180.2057 1468,-144 1412.6364,-99.9128 1189.1978,-91.8184 1111.1041,-90.3334"/>
</g>
<!-- t14&#45;&#45;v2 -->
<g id="edge64" class="edge">
<title>t14&#45;&#45;v2</title>
<path fill="none" stroke="#000000" d="M1555.1604,-298.8222C1576.9139,-291.1325 1607.0012,-276.5849 1621,-252 1628.917,-238.096 1629.1231,-229.7846 1621,-216 1550.7566,-96.7986 1478.2073,-109.4022 1345,-72 1234.1935,-40.8875 871.6784,-23.4879 769.2036,-19.1082"/>
</g>
<!-- t14&#45;&#45;t26 -->
<g id="edge67" class="edge">
<title>t14&#45;&#45;t26</title>
<path fill="none" stroke="#000000" d="M1542.4804,-289.6621C1551.4814,-277.8788 1563.5793,-262.0416 1572.569,-250.2733"/>
</g>
<!-- t26&#45;&#45;v0 -->
<g id="edge68" class="edge">
<title>t26&#45;&#45;v0</title>
<path fill="none" stroke="#000000" d="M1559.5299,-227.4245C1544.1216,-223.64 1524.0314,-219.0459 1506,-216 1332.3051,-186.6594 1120.8906,-169.4054 1047.0187,-163.9209"/>
</g>
<!-- t26&#45;&#45;v1 -->
<g id="edge69" class="edge">
<title>t26&#45;&#45;v1</title>
<path fill="none" stroke="#000000" d="M1576.3478,-216.7203C1564.8011,-195.6621 1542.2442,-160.8147 1512,-144 1442.5324,-105.3785 1194.045,-93.6792 1111.1416,-90.8084"/>
</g>
<!-- t26&#45;&#45;v2 -->
<g id="edge70" class="edge">
<title>t26&#45;&#45;v2</title>
<path fill="none" stroke="#000000" d="M1566.8023,-220.5571C1522.1722,-188.3976 1402.6243,-107.0963 1289,-72 1189.9595,-41.4084 865.0799,-23.8493 768.9968,-19.2344"/>
</g>
<!-- r1 -->
<g id="node18" class="node">
<title>r1</title>
<ellipse fill="none" stroke="#000000" cx="1154" cy="-450" rx="27" ry="18"/>
<text text-anchor="middle" x="1154" y="-446.3" font-family="Times,serif" font-size="14.00" fill="#000000">r1</text>
</g>
<!-- t15&#45;&#45;v0 -->
<g id="edge73" class="edge">
<title>t15&#45;&#45;v0</title>
<path fill="none" stroke="#000000" d="M1742.5956,-291.3729C1718.1079,-270.5091 1669.6447,-232.8664 1621,-216 1512.6172,-178.4208 1149.8427,-165.6186 1047.2422,-162.703"/>
</g>
<!-- t15&#45;&#45;v1 -->
<g id="edge74" class="edge">
<title>t15&#45;&#45;v1</title>
<path fill="none" stroke="#000000" d="M1757.8348,-287.6716C1755.5957,-267.5361 1749.0607,-235.4755 1730,-216 1695.7875,-181.0429 1667.8064,-205.3914 1626,-180 1606.1157,-167.9232 1609.1217,-153.7523 1588,-144 1501.8126,-104.2056 1202.9235,-93.1321 1111.0675,-90.6337"/>
</g>
<!-- t15&#45;&#45;v2 -->
<g id="edge75" class="edge">
<title>t15&#45;&#45;v2</title>
<path fill="none" stroke="#000000" d="M1781.207,-295.2061C1804.2706,-283.482 1837.9625,-264.7287 1845,-252 1887.0173,-176.0034 1842.6613,-117.9887 1769,-72 1725.3393,-44.7415 926.8491,-22.7707 768.9836,-18.683"/>
</g>
<!-- t15&#45;&#45;t16 -->
<g id="edge78" class="edge">
<title>t15&#45;&#45;t16</title>
<path fill="none" stroke="#000000" d="M1770.3458,-289.6621C1778.4133,-278.0448 1789.2174,-262.4869 1797.3521,-250.7729"/>
</g>
<!-- t16&#45;&#45;v0 -->
<g id="edge79" class="edge">
<title>t16&#45;&#45;v0</title>
<path fill="none" stroke="#000000" d="M1782.4225,-230.6627C1751.5723,-226.8471 1699.1487,-220.5432 1654,-216 1419.0612,-192.3587 1134.4525,-170.5499 1046.9087,-163.9952"/>
</g>
<!-- t16&#45;&#45;v1 -->
<g id="edge80" class="edge">
<title>t16&#45;&#45;v1</title>
<path fill="none" stroke="#000000" d="M1789.3762,-221.3861C1756.8685,-201.1889 1689.1517,-162.0356 1626,-144 1527.3435,-115.8246 1206.5022,-96.6152 1111.0355,-91.4162"/>
</g>
<!-- t16&#45;&#45;v2 -->
<g id="edge81" class="edge">
<title>t16&#45;&#45;v2</title>
<path fill="none" stroke="#000000" d="M1807.333,-215.8159C1803.0771,-181.1266 1788.4471,-105.9399 1740,-72 1699.0979,-43.3458 924.4439,-22.5525 769.0191,-18.6594"/>
</g>
<!-- t17&#45;&#45;v0 -->
<g id="edge84" class="edge">
<title>t17&#45;&#45;v0</title>
<path fill="none" stroke="#000000" d="M1373.7461,-227.4369C1359.4853,-223.8366 1341.3041,-219.4227 1325,-216 1222.639,-194.5118 1099.7594,-174.5044 1046.6271,-166.1316"/>
</g>
<!-- t17&#45;&#45;v1 -->
<g id="edge85" class="edge">
<title>t17&#45;&#45;v1</title>
<path fill="none" stroke="#000000" d="M1395.8997,-216.1168C1391.3398,-195.454 1380.7631,-161.9956 1358,-144 1319.7753,-113.7811 1172.6625,-97.7259 1111.2143,-92.222"/>
</g>
<!-- t17&#45;&#45;v2 -->
<g id="edge86" class="edge">
<title>t17&#45;&#45;v2</title>
<path fill="none" stroke="#000000" d="M1401.2528,-216.0466C1402.7157,-195.9465 1401.7365,-163.6269 1384,-144 1299.6578,-50.6684 880.6463,-24.5168 769.2415,-19.1632"/>
</g>
<!-- t18&#45;&#45;v0 -->
<g id="edge88" class="edge">
<title>t18&#45;&#45;v0</title>
<path fill="none" stroke="#000000" d="M1189.9837,-368.1704C1169.7907,-358.7989 1140.3928,-343.2751 1119,-324 1072.1066,-281.7486 1039.9723,-212.0583 1026.7564,-179.623"/>
</g>
<!-- t18&#45;&#45;v1 -->
<g id="edge89" class="edge">
<title>t18&#45;&#45;v1</title>
<path fill="none" stroke="#000000" d="M1232.778,-365.4157C1270.0399,-339.9614 1345.1702,-279.3712 1325,-216 1313.1064,-178.6326 1306.0134,-166.6477 1274,-144 1223.6086,-108.3509 1150.147,-96.1366 1110.9704,-92.0262"/>
</g>
<!-- t18&#45;&#45;v2 -->
<g id="edge90" class="edge">
<title>t18&#45;&#45;v2</title>
<path fill="none" stroke="#000000" d="M1240.1915,-376.5845C1348.3289,-370.8054 1744.4762,-348.157 1795,-324 1872.7342,-286.8328 1896.6615,-224.8962 1867,-144 1852.562,-104.6229 1843.5937,-90.5936 1806,-72 1710.567,-24.7995 926.0834,-18.8215 769.2329,-18.0965"/>
</g>
<!-- t18&#45;&#45;t19 -->
<g id="edge92" class="edge">
<title>t18&#45;&#45;t19</title>
<path fill="none" stroke="#000000" d="M1213,-359.8314C1213,-349 1213,-335.2876 1213,-324.4133"/>
</g>
<!-- t18&#45;&#45;t20 -->
<g id="edge96" class="edge">
<title>t18&#45;&#45;t20</title>
<path fill="none" stroke="#000000" d="M1225.1091,-361.4364C1232.4818,-350.9797 1241.8289,-337.0299 1249,-324 1262.3557,-299.7325 1274.8261,-270.1379 1282.1834,-251.6763"/>
</g>
<!-- t18&#45;&#45;t21 -->
<g id="edge101" class="edge">
<title>t18&#45;&#45;t21</title>
<path fill="none" stroke="#000000" d="M1192.7173,-365.9176C1177.6907,-356.1435 1157.5527,-341.2086 1144,-324 1126.5777,-301.8781 1114.6513,-271.1638 1108.3293,-251.945"/>
</g>
<!-- t19&#45;&#45;v0 -->
<g id="edge93" class="edge">
<title>t19&#45;&#45;v0</title>
<path fill="none" stroke="#000000" d="M1209.2406,-287.9585C1204.1391,-267.7776 1193.1293,-235.384 1172,-216 1136.5056,-183.4375 1080.0916,-170.2544 1046.8914,-165.1089"/>
</g>
<!-- t19&#45;&#45;v1 -->
<g id="edge94" class="edge">
<title>t19&#45;&#45;v1</title>
<path fill="none" stroke="#000000" d="M1212.9355,-287.853C1212.2088,-269.0074 1209.1687,-239.1037 1198,-216 1174.7612,-167.9281 1127.3957,-124.8463 1101.6371,-103.7292"/>
</g>
<!-- t19&#45;&#45;t20 -->
<g id="edge97" class="edge">
<title>t19&#45;&#45;t20</title>
<path fill="none" stroke="#000000" d="M1228.7472,-291.0816C1241.7907,-278.7246 1260.235,-261.251 1273.2729,-248.8993"/>
</g>
<!-- t20&#45;&#45;v0 -->
<g id="edge98" class="edge">
<title>t20&#45;&#45;v0</title>
<path fill="none" stroke="#000000" d="M1263.6931,-227.2264C1212.4239,-213.5038 1096.8123,-182.5594 1045.4356,-168.808"/>
</g>
<!-- t20&#45;&#45;v1 -->
<g id="edge99" class="edge">
<title>t20&#45;&#45;v1</title>
<path fill="none" stroke="#000000" d="M1285.3218,-215.8689C1280.2949,-195.6058 1269.3534,-163.1369 1248,-144 1208.8229,-108.8896 1146.2855,-96.5402 1110.8291,-92.2454"/>
</g>
<!-- t21&#45;&#45;v0 -->
<g id="edge102" class="edge">
<title>t21&#45;&#45;v0</title>
<path fill="none" stroke="#000000" d="M1086.2037,-219.4297C1071.7088,-206.8559 1050.8924,-188.7982 1036.4881,-176.3029"/>
</g>
<!-- t21&#45;&#45;v1 -->
<g id="edge103" class="edge">
<title>t21&#45;&#45;v1</title>
<path fill="none" stroke="#000000" d="M1100.6321,-216.0535C1096.9912,-188.4592 1090.0566,-135.9026 1086.3978,-108.1727"/>
</g>
<!-- t22&#45;&#45;v0 -->
<g id="edge105" class="edge">
<title>t22&#45;&#45;v0</title>
<path fill="none" stroke="#000000" d="M2022.407,-361.7936C1994.6938,-327.5404 1924.525,-248.2892 1845,-216 1769.6936,-185.4236 1181.8258,-166.6814 1047.3406,-162.7679"/>
</g>
<!-- t22&#45;&#45;v1 -->
<g id="edge106" class="edge">
<title>t22&#45;&#45;v1</title>
<path fill="none" stroke="#000000" d="M2027.865,-360.4125C2019.5126,-341.2246 2004.3288,-310.2759 1985,-288 1950.2792,-247.9852 1936.7038,-241.0095 1890,-216 1804.1303,-170.0175 1778.219,-164.5265 1683,-144 1571.2333,-119.9063 1212.3282,-97.5168 1110.9169,-91.5481"/>
</g>
<!-- t22&#45;&#45;t23 -->
<g id="edge108" class="edge">
<title>t22&#45;&#45;t23</title>
<path fill="none" stroke="#000000" d="M2056.9372,-367.2892C2079.1558,-356.4273 2114.4994,-339.1114 2145,-324 2149.6334,-321.7044 2154.5962,-319.2319 2159.3108,-316.8766"/>
</g>
<!-- t24 -->
<g id="node28" class="node">
<title>t24</title>
<ellipse fill="none" stroke="#000000" cx="2126" cy="-234" rx="27" ry="18"/>
<text text-anchor="middle" x="2126" y="-230.3" font-family="Times,serif" font-size="14.00" fill="#000000">t24</text>
</g>
<!-- t22&#45;&#45;t24 -->
<g id="edge109" class="edge">
<title>t22&#45;&#45;t24</title>
<path fill="none" stroke="#000000" d="M2040.3317,-360.1056C2046.4561,-341.2023 2057.6699,-311.0061 2073,-288 2083.0522,-272.9146 2097.668,-258.4014 2109.0063,-248.2271"/>
</g>
<!-- t25 -->
<g id="node29" class="node">
<title>t25</title>
<ellipse fill="none" stroke="#000000" cx="2109" cy="-306" rx="27" ry="18"/>
<text text-anchor="middle" x="2109" y="-302.3" font-family="Times,serif" font-size="14.00" fill="#000000">t25</text>
</g>
<!-- t22&#45;&#45;t25 -->
<g id="edge111" class="edge">
<title>t22&#45;&#45;t25</title>
<path fill="none" stroke="#000000" d="M2050.3328,-363.0816C2063.0331,-350.7246 2080.992,-333.251 2093.6868,-320.8993"/>
</g>
<!-- t23&#45;&#45;t24 -->
<g id="edge110" class="edge">
<title>t23&#45;&#45;t24</title>
<path fill="none" stroke="#000000" d="M2168.5196,-289.6621C2159.5186,-277.8788 2147.4207,-262.0416 2138.431,-250.2733"/>
</g>
<!-- r2 -->
<g id="node30" class="node">
<title>r2</title>
<ellipse fill="none" stroke="#000000" cx="1226" cy="-450" rx="27" ry="18"/>
<text text-anchor="middle" x="1226" y="-446.3" font-family="Times,serif" font-size="14.00" fill="#000000">r2</text>
</g>
</g>
</svg>
