<?xml version="1.0" encoding="UTF-8" standalone="no"?>
<!DOCTYPE svg PUBLIC "-//W3C//DTD SVG 1.1//EN"
 "http://www.w3.org/Graphics/SVG/1.1/DTD/svg11.dtd">
<!-- Generated by graphviz version 2.40.1 (20161225.0304)
 -->
<!-- Title: G Pages: 1 -->
<svg width="239pt" height="332pt"
 viewBox="0.00 0.00 238.99 332.00" xmlns="http://www.w3.org/2000/svg" xmlns:xlink="http://www.w3.org/1999/xlink">
<g id="graph0" class="graph" transform="scale(1 1) rotate(0) translate(4 328)">
<title>G</title>
<polygon fill="#ffffff" stroke="transparent" points="-4,4 -4,-328 234.9942,-328 234.9942,4 -4,4"/>
<!-- Ti1_14 -->
<g id="node1" class="node">
<title>Ti1_14</title>
<ellipse fill="#0dbba0" stroke="#000000" cx="36.3968" cy="-162" rx="36.2938" ry="18"/>
<text text-anchor="middle" x="36.3968" y="-158.3" font-family="Times,serif" font-size="14.00" fill="#000000">Ti1_14</text>
</g>
<!-- Ti2_15 -->
<g id="node2" class="node">
<title>Ti2_15</title>
<ellipse fill="#0927c0" stroke="#000000" cx="72.3968" cy="-234" rx="36.2938" ry="18"/>
<text text-anchor="middle" x="72.3968" y="-230.3" font-family="Times,serif" font-size="14.00" fill="#000000">Ti2_15</text>
</g>
<!-- Ti2_15&#45;&gt;Ti1_14 -->
<g id="edge1" class="edge">
<title>Ti2_15&#45;&gt;Ti1_14</title>
<path fill="none" stroke="#000000" d="M63.4979,-216.2022C57.9177,-205.0419 50.7539,-190.7143 45.1933,-179.593"/>
</g>
<!-- Ti3_16 -->
<g id="node3" class="node">
<title>Ti3_16</title>
<ellipse fill="#0493e0" stroke="#000000" cx="56.3968" cy="-306" rx="36.2938" ry="18"/>
<text text-anchor="middle" x="56.3968" y="-302.3" font-family="Times,serif" font-size="14.00" fill="#000000">Ti3_16</text>
</g>
<!-- Ti3_16&#45;&gt;Ti1_14 -->
<g id="edge2" class="edge">
<title>Ti3_16&#45;&gt;Ti1_14</title>
<path fill="none" stroke="#000000" d="M44.3887,-288.9071C37.9694,-278.7095 30.7194,-265.2095 27.3968,-252 21.2298,-227.482 26.3794,-198.206 31.0507,-179.854"/>
</g>
<!-- Ti3_16&#45;&gt;Ti2_15 -->
<g id="edge3" class="edge">
<title>Ti3_16&#45;&gt;Ti2_15</title>
<path fill="none" stroke="#000000" d="M60.4342,-287.8314C62.8782,-276.8334 65.9823,-262.865 68.416,-251.9134"/>
</g>
<!-- Ti7_18 -->
<g id="node4" class="node">
<title>Ti7_18</title>
<ellipse fill="#124f80" stroke="#000000" cx="145.3968" cy="-18" rx="36.2938" ry="18"/>
<text text-anchor="middle" x="145.3968" y="-14.3" font-family="Times,serif" font-size="14.00" fill="#000000">Ti7_18</text>
</g>
<!-- Ti8_19 -->
<g id="node5" class="node">
<title>Ti8_19</title>
<ellipse fill="#0493e0" stroke="#000000" cx="145.3968" cy="-90" rx="36.2938" ry="18"/>
<text text-anchor="middle" x="145.3968" y="-86.3" font-family="Times,serif" font-size="14.00" fill="#000000">Ti8_19</text>
</g>
<!-- Ti8_19&#45;&gt;Ti7_18 -->
<g id="edge4" class="edge">
<title>Ti8_19&#45;&gt;Ti7_18</title>
<path fill="none" stroke="#000000" d="M145.3968,-71.8314C145.3968,-61 145.3968,-47.2876 145.3968,-36.4133"/>
</g>
<!-- a_11 -->
<g id="node6" class="node">
<title>a_11</title>
<ellipse fill="#0dbba0" stroke="#000000" cx="145.3968" cy="-162" rx="27.8951" ry="18"/>
<text text-anchor="middle" x="145.3968" y="-158.3" font-family="Times,serif" font-size="14.00" fill="#000000">a_11</text>
</g>
<!-- a_11&#45;&gt;Ti7_18 -->
<g id="edge5" class="edge">
<title>a_11&#45;&gt;Ti7_18</title>
<path fill="none" stroke="#000000" d="M128.2706,-147.3733C118.0321,-137.4505 105.9636,-123.376 100.3968,-108 94.95,-92.9557 94.95,-87.0443 100.3968,-72 105.7144,-57.3125 116.9644,-43.8125 126.885,-33.9844"/>
</g>
<!-- a_11&#45;&gt;Ti8_19 -->
<g id="edge6" class="edge">
<title>a_11&#45;&gt;Ti8_19</title>
<path fill="none" stroke="#000000" d="M145.3968,-143.8314C145.3968,-133 145.3968,-119.2876 145.3968,-108.4133"/>
</g>
<!-- b_12 -->
<g id="node7" class="node">
<title>b_12</title>
<ellipse fill="#0927c0" stroke="#000000" cx="202.3968" cy="-234" rx="28.6953" ry="18"/>
<text text-anchor="middle" x="202.3968" y="-230.3" font-family="Times,serif" font-size="14.00" fill="#000000">b_12</text>
</g>
<!-- b_12&#45;&gt;Ti7_18 -->
<g id="edge7" class="edge">
<title>b_12&#45;&gt;Ti7_18</title>
<path fill="none" stroke="#000000" d="M204.5609,-215.6929C207.4591,-184.7957 210.1706,-120.8904 190.3968,-72 184.5399,-57.5191 173.2899,-44.0191 163.5041,-34.1393"/>
</g>
<!-- b_12&#45;&gt;a_11 -->
<g id="edge8" class="edge">
<title>b_12&#45;&gt;a_11</title>
<path fill="none" stroke="#000000" d="M189.4626,-217.6621C180.1342,-205.8788 167.5964,-190.0416 158.2798,-178.2733"/>
</g>
<!-- n_10 -->
<g id="node8" class="node">
<title>n_10</title>
<ellipse fill="#0493e0" stroke="#000000" cx="161.3968" cy="-306" rx="28.6953" ry="18"/>
<text text-anchor="middle" x="161.3968" y="-302.3" font-family="Times,serif" font-size="14.00" fill="#000000">n_10</text>
</g>
<!-- n_10&#45;&gt;a_11 -->
<g id="edge9" class="edge">
<title>n_10&#45;&gt;a_11</title>
<path fill="none" stroke="#000000" d="M159.3704,-287.7623C156.2927,-260.0633 150.4746,-207.7005 147.4067,-180.0896"/>
</g>
<!-- n_10&#45;&gt;b_12 -->
<g id="edge10" class="edge">
<title>n_10&#45;&gt;b_12</title>
<path fill="none" stroke="#000000" d="M171.1132,-288.937C177.5542,-277.626 185.9807,-262.8282 192.4653,-251.4407"/>
</g>
</g>
</svg>
