<?xml version="1.0" encoding="UTF-8" standalone="no"?>
<!DOCTYPE svg PUBLIC "-//W3C//DTD SVG 1.1//EN"
 "http://www.w3.org/Graphics/SVG/1.1/DTD/svg11.dtd">
<!-- Generated by graphviz version 2.40.1 (20161225.0304)
 -->
<!-- Title: G Pages: 1 -->
<svg width="716pt" height="188pt"
 viewBox="0.00 0.00 715.63 188.00" xmlns="http://www.w3.org/2000/svg" xmlns:xlink="http://www.w3.org/1999/xlink">
<g id="graph0" class="graph" transform="scale(1 1) rotate(0) translate(4 184)">
<title>G</title>
<polygon fill="#ffffff" stroke="transparent" points="-4,4 -4,-184 711.6336,-184 711.6336,4 -4,4"/>
<!-- Ti19_69 -->
<g id="node1" class="node">
<title>Ti19_69</title>
<ellipse fill="#0dbba0" stroke="#000000" cx="62.6336" cy="-18" rx="40.0939" ry="18"/>
<text text-anchor="middle" x="62.6336" y="-14.3" font-family="Times,serif" font-size="14.00" fill="#000000">Ti19_69</text>
</g>
<!-- Ti25_67 -->
<g id="node2" class="node">
<title>Ti25_67</title>
<ellipse fill="#0927c0" stroke="#000000" cx="53.6336" cy="-90" rx="40.0939" ry="18"/>
<text text-anchor="middle" x="53.6336" y="-86.3" font-family="Times,serif" font-size="14.00" fill="#000000">Ti25_67</text>
</g>
<!-- Ti29_93 -->
<g id="node3" class="node">
<title>Ti29_93</title>
<ellipse fill="#0493e0" stroke="#000000" cx="140.6336" cy="-162" rx="40.0939" ry="18"/>
<text text-anchor="middle" x="140.6336" y="-158.3" font-family="Times,serif" font-size="14.00" fill="#000000">Ti29_93</text>
</g>
<!-- Ti3_46 -->
<g id="node4" class="node">
<title>Ti3_46</title>
<ellipse fill="#0493e0" stroke="#000000" cx="235.6336" cy="-162" rx="36.2938" ry="18"/>
<text text-anchor="middle" x="235.6336" y="-158.3" font-family="Times,serif" font-size="14.00" fill="#000000">Ti3_46</text>
</g>
<!-- Ti38_86 -->
<g id="node5" class="node">
<title>Ti38_86</title>
<ellipse fill="#0493e0" stroke="#000000" cx="330.6336" cy="-162" rx="40.0939" ry="18"/>
<text text-anchor="middle" x="330.6336" y="-158.3" font-family="Times,serif" font-size="14.00" fill="#000000">Ti38_86</text>
</g>
<!-- Ti41_83 -->
<g id="node6" class="node">
<title>Ti41_83</title>
<ellipse fill="#0493e0" stroke="#000000" cx="429.6336" cy="-162" rx="40.0939" ry="18"/>
<text text-anchor="middle" x="429.6336" y="-158.3" font-family="Times,serif" font-size="14.00" fill="#000000">Ti41_83</text>
</g>
<!-- Ti5_54 -->
<g id="node7" class="node">
<title>Ti5_54</title>
<ellipse fill="#0927c0" stroke="#000000" cx="516.6336" cy="-90" rx="36.2938" ry="18"/>
<text text-anchor="middle" x="516.6336" y="-86.3" font-family="Times,serif" font-size="14.00" fill="#000000">Ti5_54</text>
</g>
<!-- Ti7_52 -->
<g id="node8" class="node">
<title>Ti7_52</title>
<ellipse fill="#0493e0" stroke="#000000" cx="599.6336" cy="-162" rx="36.2938" ry="18"/>
<text text-anchor="middle" x="599.6336" y="-158.3" font-family="Times,serif" font-size="14.00" fill="#000000">Ti7_52</text>
</g>
<!-- i_59 -->
<g id="node9" class="node">
<title>i_59</title>
<ellipse fill="#0493e0" stroke="#000000" cx="680.6336" cy="-162" rx="27" ry="18"/>
<text text-anchor="middle" x="680.6336" y="-158.3" font-family="Times,serif" font-size="14.00" fill="#000000">i_59</text>
</g>
<!-- x_49 -->
<g id="node10" class="node">
<title>x_49</title>
<ellipse fill="#0927c0" stroke="#000000" cx="140.6336" cy="-90" rx="28.6953" ry="18"/>
<text text-anchor="middle" x="140.6336" y="-86.3" font-family="Times,serif" font-size="14.00" fill="#000000">x_49</text>
</g>
<!-- x_49&#45;&gt;Ti19_69 -->
<g id="edge1" class="edge">
<title>x_49&#45;&gt;Ti19_69</title>
<path fill="none" stroke="#000000" d="M124.4719,-75.0816C111.6207,-63.2189 93.661,-46.6407 80.4062,-34.4055"/>
</g>
<!-- y_45 -->
<g id="node11" class="node">
<title>y_45</title>
<ellipse fill="#0493e0" stroke="#000000" cx="516.6336" cy="-162" rx="28.6953" ry="18"/>
<text text-anchor="middle" x="516.6336" y="-158.3" font-family="Times,serif" font-size="14.00" fill="#000000">y_45</text>
</g>
<!-- y_45&#45;&gt;Ti5_54 -->
<g id="edge2" class="edge">
<title>y_45&#45;&gt;Ti5_54</title>
<path fill="none" stroke="#000000" d="M516.6336,-143.8314C516.6336,-133 516.6336,-119.2876 516.6336,-108.4133"/>
</g>
<!-- y_50 -->
<g id="node12" class="node">
<title>y_50</title>
<ellipse fill="#0493e0" stroke="#000000" cx="53.6336" cy="-162" rx="28.6953" ry="18"/>
<text text-anchor="middle" x="53.6336" y="-158.3" font-family="Times,serif" font-size="14.00" fill="#000000">y_50</text>
</g>
<!-- y_50&#45;&gt;Ti19_69 -->
<g id="edge3" class="edge">
<title>y_50&#45;&gt;Ti19_69</title>
<path fill="none" stroke="#000000" d="M35.0177,-147.6792C23.8822,-137.8785 10.7433,-123.8251 4.6336,-108 -1.1291,-93.0738 -1.7522,-86.6704 4.6336,-72 11.717,-55.7269 26.3891,-42.1423 39.2033,-32.6687"/>
</g>
<!-- y_50&#45;&gt;Ti25_67 -->
<g id="edge4" class="edge">
<title>y_50&#45;&gt;Ti25_67</title>
<path fill="none" stroke="#000000" d="M53.6336,-143.8314C53.6336,-133 53.6336,-119.2876 53.6336,-108.4133"/>
</g>
<!-- y_50&#45;&gt;x_49 -->
<g id="edge5" class="edge">
<title>y_50&#45;&gt;x_49</title>
<path fill="none" stroke="#000000" d="M71.2393,-147.4297C86.3334,-134.938 107.9675,-117.034 123.054,-104.5486"/>
</g>
</g>
</svg>
